<svg width="33" height="80" viewBox="0 0 33 80" fill="none" xmlns="http://www.w3.org/2000/svg">
<path d="M21.994 5.19313C21.0195 11.72 19.8292 18.1729 18.582 24.6074C17.3407 31.044 15.9855 37.4416 14.5764 43.8207L14.0513 46.2131L13.7887 47.4093C13.7333 47.6699 13.6968 47.7355 13.6472 47.9099C13.4867 48.5152 13.3905 49.1718 13.3715 49.8612C13.3467 51.2277 13.5772 52.7481 14.2132 54.0695C14.2657 54.2829 14.769 55.0256 15.1614 55.6248L16.3721 57.4755L18.76 61.2365C20.3325 63.7746 21.8991 66.3209 23.387 68.9985L18.3034 77.2755C16.2043 75.5951 14.1855 73.7834 12.171 71.9634L9.17918 69.1873L7.70003 67.7695C7.19677 67.277 6.79271 66.9467 5.9875 66.009C3.21303 62.6994 1.14018 58.0008 0.380194 52.783C-0.00782376 50.1792 -0.102638 47.4647 0.113251 44.7768C0.170141 44.1325 0.256222 43.3816 0.32624 42.8296L0.480846 41.5965L0.790101 39.1302C1.60844 32.55 2.48075 25.9883 3.46538 19.4635C4.44564 12.9387 5.48278 6.43245 6.73436 0L21.994 5.19313Z" fill="#B55B52"/>
<path d="M18.3924 68.4137L24.411 64.0843L27.0659 78.4737C27.0659 78.4737 22.2361 81.0775 18.4974 77.733L18.3924 68.4137Z" fill="#B55B52"/>
<path d="M32.7272 59.4821L33 72.6815L26.2797 78.8636L23.9487 64.3634L32.7272 59.4821Z" fill="#B55B52"/>
</svg>
