<svg width="39" height="61" viewBox="0 0 39 61" fill="none" xmlns="http://www.w3.org/2000/svg">
<path d="M35.5183 11.9954C38.7941 6.18535 33.7547 5.90791 33.7547 5.90791C35.0639 -1.02842 29.1697 2.7059 29.1697 2.7059C25.6308 -4.15439 23.6349 4.19387 23.6349 4.19387C19.9646 -1.61826 19.2896 7.8809 19.2896 7.8809C15.609 0.50886 13.7344 11.1425 13.7344 11.1425C10.3445 3.48687 8.26974 13.4608 8.26974 13.4608C1.27095 9.93613 4.59793 20.167 4.59793 20.167C-1.37661 20.4033 3.4159 26.9039 3.4159 26.9039C-3.7407 26.9286 2.56989 32.6934 2.56989 32.6934C-3.11389 37.9383 4.02081 39.3503 4.02081 39.3503C-0.616807 49.5503 7.34633 45.7666 7.34633 45.7666C4.12016 55.8618 11.2738 51.4144 11.2738 51.4144C10.8092 61.1561 14.8098 58.5048 16.7326 56.7003C17.1037 58.6631 17.7963 60.7409 19.0821 60.9773C21.5777 61.4356 22.0628 54.8096 22.0628 54.8096C22.0628 54.8096 24.3787 57.3436 26.3205 55.9708C28.2623 54.5979 27.5303 51.1225 27.5303 51.1225C27.5303 51.1225 29.0163 52.6824 30.378 51.1945C31.2109 50.284 31.2153 43.7423 30.153 41.4425L33.9563 39.3482C33.9563 39.3482 36.7792 38.7892 35.5183 33.5546C34.2588 28.322 35.3269 24.189 35.3269 24.189C39.6197 21.359 36.0983 17.9556 36.0983 17.9556C41.0618 13.432 35.5183 11.9954 35.5183 11.9954Z" fill="#263238"/>
</svg>
