<svg width="68" height="56" viewBox="0 0 68 56" fill="none" xmlns="http://www.w3.org/2000/svg">
<path d="M11.841 0C15.5831 5.72363 19.1587 11.6526 22.6891 17.6371C26.2239 23.6154 29.671 29.7005 33.0759 35.8389C33.2248 36.1059 33.1649 35.9971 33.2 36.0772C33.216 36.1121 33.219 36.1696 33.2394 36.1983C33.2774 36.2579 33.2978 36.3565 33.3431 36.4099C33.4102 36.5618 33.5081 36.6707 33.6059 36.8144C33.8132 37.0752 34.0964 37.2745 34.4118 37.3566C34.568 37.3895 34.733 37.4223 34.9009 37.3977C34.9915 37.4141 35.0718 37.3751 35.1667 37.371C35.2163 37.373 35.2528 37.3361 35.301 37.3279C35.3754 37.2827 35.3287 37.3751 35.5302 37.2067L39.1876 34.4178C44.0934 30.7643 49.0386 27.1929 54.1531 23.9871L58.4281 31.4338C54.3078 36.7672 50.0168 43.4376 45.6863 48.3254L42.4158 51.9419C42.3326 52.0487 41.9807 52.3732 41.7602 52.5806C41.5076 52.8086 41.2609 53.055 40.9937 53.2563C40.4637 53.667 39.9293 54.0777 39.3614 54.394C38.24 55.0758 37.0428 55.5092 35.8295 55.772C33.3956 56.2814 30.8668 55.9363 28.5059 54.7472C27.3291 54.1517 26.1888 53.3569 25.1508 52.3424C24.6193 51.8577 24.1331 51.2888 23.6484 50.7159C23.4045 50.4304 23.187 50.1121 22.9592 49.802L22.3781 48.9743C18.5148 43.4006 14.6939 37.7735 10.9591 32.0396C7.2214 26.3098 3.52747 20.5287 0 14.5401L11.841 0Z" fill="#B55B52"/>
<path d="M52.1645 28.5216L55.5679 13.1457L64.5267 19.4259C64.5267 19.4259 63.2214 30.6452 56.6994 32.59L52.1645 28.5216Z" fill="#B55B52"/>
<path d="M59.1625 8.88007L67.2424 12.0099L64.5282 19.4237L55.5693 13.1435L59.1625 8.88007Z" fill="#B55B52"/>
</svg>
