<svg width="56" height="115" viewBox="0 0 56 115" fill="none" xmlns="http://www.w3.org/2000/svg">
<path d="M51.1531 3.99409C51.1531 3.99409 60.8717 19.4339 51.6934 115C36.9785 115 10.0172 115 2.85706 115C2.52068 104.456 7.23145 53.0174 0 3.33251C0 3.33251 8.37165 0.968804 16.3487 0.428061C22.5885 0.00611757 31.6227 -0.274495 37.1081 0.428061C44.341 1.35798 51.1531 3.99409 51.1531 3.99409Z" fill="#407BFF"/>
<path opacity="0.6" d="M51.1531 3.99409C51.1531 3.99409 60.8717 19.4339 51.6934 115C36.9785 115 10.0172 115 2.85706 115C2.52068 104.456 7.23145 53.0174 0 3.33251C0 3.33251 8.37165 0.968804 16.3487 0.428061C22.5885 0.00611757 31.6227 -0.274495 37.1081 0.428061C44.341 1.35798 51.1531 3.99409 51.1531 3.99409Z" fill="#FAFAFA"/>
</svg>
