<svg width="208" height="391" viewBox="0 0 208 391" fill="none" xmlns="http://www.w3.org/2000/svg">
<path opacity="0.2" d="M133.522 27.2944C131.702 31.797 130.501 36.8202 130.169 42.1426L108.471 391H175.606L189.095 318.259L184.656 245.519L198.145 172.778L193.705 100.037L207.194 27.2965H133.522V27.2944Z" fill="black"/>
<path d="M187.877 79.5428L201.365 6.80006H31.5868L18.0977 79.5428L22.5387 152.284L9.04957 225.024L13.4891 297.767L0 370.508H169.778L183.267 297.767L178.828 225.024L192.315 152.284L187.877 79.5428Z" fill="#407BFF"/>
<path opacity="0.7" d="M187.877 79.5428L201.365 6.80006H31.5868L18.0977 79.5428L22.5387 152.284L9.04957 225.024L13.4891 297.767L0 370.508H169.778L183.267 297.767L178.828 225.024L192.315 152.284L187.877 79.5428Z" fill="white"/>
<path opacity="0.5" d="M187.876 79.5428H18.0977L31.5868 6.80006H201.365L187.876 79.5428Z" fill="white"/>
<path opacity="0.5" d="M178.828 225.024H9.04956L22.5387 152.284H192.317L178.828 225.024Z" fill="white"/>
<path opacity="0.5" d="M169.778 370.508H0L13.4891 297.767H183.267L169.778 370.508Z" fill="white"/>
<path opacity="0.2" d="M165.158 109.94C163.699 110.582 161.831 110.967 159.796 110.967C156.799 110.967 154.165 110.133 152.667 108.876C152.256 108.53 151.804 108.358 151.353 108.358C150.933 108.358 150.515 108.524 150.127 108.821C150.098 108.844 150.066 108.852 150.038 108.876C150.022 108.891 150.002 108.901 149.986 108.915C149.431 109.37 148.731 109.77 147.915 110.092C146.515 110.643 144.784 110.969 142.911 110.969C142.402 110.969 141.902 110.944 141.419 110.899C139.966 110.76 138.642 110.424 137.549 109.944C137.358 109.86 137.166 109.811 136.978 109.793C135.656 109.67 134.469 111.096 134.469 113.068V115.289H68.4786C63.3717 115.289 59.2309 121.112 59.2309 128.297V141.405C59.2309 148.588 63.3717 154.413 68.4786 154.413H143.555C143.721 154.413 143.881 154.39 144.046 154.378C144.856 155.321 145.699 156.261 146.592 157.214C147.662 158.354 148.788 159.51 149.968 160.715C150.79 161.553 151.918 161.553 152.74 160.715C162.18 151.085 168.241 144.442 168.241 126.192V113.07C168.239 110.813 166.688 109.268 165.158 109.94Z" fill="black"/>
<path d="M142.119 147.189H67.0434C61.9365 147.189 57.7957 141.366 57.7957 134.181V121.073C57.7957 113.889 61.9351 108.065 67.0434 108.065H142.119C147.226 108.065 151.367 113.887 151.367 121.073V134.181C151.367 141.364 147.226 147.189 142.119 147.189Z" fill="#407BFF"/>
<path d="M158.362 103.744C155.365 103.744 152.732 102.91 151.233 101.654C150.41 100.963 149.428 100.963 148.605 101.654C147.107 102.91 144.474 103.744 141.475 103.744C139.438 103.744 137.572 103.359 136.114 102.72C134.585 102.047 133.032 103.591 133.032 105.845V118.968C133.032 137.218 139.093 143.86 148.533 153.49C149.355 154.329 150.483 154.329 151.304 153.49C160.745 143.86 166.806 137.218 166.806 118.968V105.845C166.806 103.591 165.254 102.047 163.724 102.72C162.266 103.359 160.399 103.744 158.362 103.744Z" fill="#407BFF"/>
<path opacity="0.3" d="M158.362 103.744C155.365 103.744 152.732 102.91 151.233 101.654C150.41 100.963 149.428 100.963 148.605 101.654C147.107 102.91 144.474 103.744 141.475 103.744C139.438 103.744 137.572 103.359 136.114 102.72C134.585 102.047 133.032 103.591 133.032 105.845V118.968C133.032 137.218 139.093 143.86 148.533 153.49C149.355 154.329 150.483 154.329 151.304 153.49C160.745 143.86 166.806 137.218 166.806 118.968V105.845C166.806 103.591 165.254 102.047 163.724 102.72C162.266 103.359 160.399 103.744 158.362 103.744Z" fill="white"/>
<path opacity="0.2" d="M148.605 101.654C147.107 102.91 144.474 103.745 141.475 103.745C139.438 103.745 137.572 103.359 136.114 102.72C134.585 102.048 133.032 103.591 133.032 105.843V118.968C133.032 137.218 139.093 143.86 148.533 153.491C148.944 153.909 149.431 154.12 149.919 154.12V101.136C149.467 101.136 149.015 101.308 148.605 101.654Z" fill="white"/>
<path d="M163.45 115.385C157.35 118.935 152.129 124.114 148.704 130.004C146.314 127.342 143.037 125.493 139.194 124.647L138.743 124.548V127.68L139 127.811C142.865 129.799 146.129 133.328 148.441 138.011L148.804 138.747L149.106 137.958C152.45 129.203 157.663 121.868 163.784 117.306L163.992 117.15V115.07L163.45 115.385Z" fill="#263238"/>
<path d="M198.368 27.2555H191.926C188.354 27.2555 185.712 23.1832 186.024 18.158L186.588 9.09745C186.901 4.07222 190.05 0 193.622 0H200.064C203.636 0 206.278 4.07427 205.966 9.09745L205.402 18.158C205.089 23.1832 201.94 27.2555 198.368 27.2555Z" fill="#407BFF"/>
<path d="M201.044 9.07893L199.647 6.92295L196.128 11.4727L193.176 6.92295L191.51 9.07893L194.462 13.6287L190.944 18.1784L192.343 20.3345L195.86 15.7847L198.812 20.3345L200.479 18.1784L197.527 13.6287L201.044 9.07893Z" fill="white"/>
</svg>
