<svg width="249" height="540" viewBox="0 0 249 540" fill="none" xmlns="http://www.w3.org/2000/svg">
<path d="M226.426 0H178.941L145.354 540H192.839C206.343 540 218.29 524.548 219.471 505.553L248.773 34.4473C249.955 15.4524 239.93 0 226.426 0Z" fill="#407BFF"/>
<path d="M216.737 0H56.0291C42.5249 0 30.5782 15.4524 29.397 34.4473L0.0945537 505.553C-1.0867 524.548 8.93793 540 22.4421 540H183.15C196.654 540 208.601 524.548 209.782 505.553L239.084 34.4473C240.265 15.4524 230.241 0 216.737 0Z" fill="#407BFF"/>
<path opacity="0.3" d="M216.737 0H56.0291C42.5249 0 30.5782 15.4524 29.397 34.4473L0.0945537 505.553C-1.0867 524.548 8.93793 540 22.4421 540H183.15C196.654 540 208.601 524.548 209.782 505.553L239.084 34.4473C240.265 15.4524 230.241 0 216.737 0Z" fill="white"/>
<path opacity="0.4" d="M216.05 11.036H173.679C171.18 11.036 168.833 13.3437 167.907 16.7119C164.481 29.1633 155.807 37.6905 146.567 37.6905H121.511C112.271 37.6905 104.656 29.1612 102.779 16.7119C102.272 13.3437 100.212 11.038 97.7128 11.038H55.3422C46.1503 11.038 38.0478 21.5181 37.2428 34.4474L7.9404 505.553C7.13686 518.482 13.9356 528.962 23.1275 528.962H183.835C193.027 528.962 201.129 518.482 201.934 505.553L231.237 34.4474C232.04 21.5181 225.242 11.036 216.05 11.036Z" fill="white"/>
<path d="M176.015 266.936H63.5425C60.2073 266.936 57.7412 263.133 58.0329 258.444L58.5958 249.392C58.8875 244.7 61.8275 240.899 65.1627 240.899H177.636C180.971 240.899 183.437 244.702 183.145 249.392L182.582 258.444C182.291 263.133 179.351 266.936 176.015 266.936Z" fill="white"/>
<path d="M173.586 305.993H61.1129C57.7776 305.993 55.3116 302.19 55.6033 297.501L56.1662 288.448C56.4578 283.757 59.3978 279.956 62.7331 279.956H175.206C178.541 279.956 181.007 283.759 180.716 288.448L180.153 297.501C179.861 302.19 176.921 305.993 173.586 305.993Z" fill="white"/>
<path opacity="0.1" d="M141.842 19.8606C141.518 25.0627 138.259 29.2781 134.561 29.2781C130.862 29.2781 128.128 25.0627 128.452 19.8606C128.775 14.6585 132.035 10.4431 135.733 10.4431C139.43 10.4431 142.166 14.6585 141.842 19.8606Z" fill="black"/>
<path opacity="0.1" d="M138.804 19.8606C138.628 22.7016 136.847 25.0052 134.826 25.0052C132.806 25.0052 131.311 22.7016 131.488 19.8606C131.664 17.0196 133.445 14.716 135.466 14.716C137.488 14.716 138.981 17.0196 138.804 19.8606Z" fill="black"/>
<g opacity="0.8">
<path d="M196.266 35.5694C195.182 35.5694 194.38 34.3345 194.475 32.8104L194.789 27.7663C194.883 26.2422 195.839 25.0073 196.922 25.0073C198.006 25.0073 198.808 26.2422 198.713 27.7663L198.399 32.8104C198.305 34.3345 197.349 35.5694 196.266 35.5694Z" fill="white"/>
<path d="M211.961 35.5694C210.877 35.5694 210.075 34.3345 210.17 32.8104L210.906 20.9724C211.001 19.4483 211.956 18.2134 213.04 18.2134C214.123 18.2134 214.925 19.4483 214.831 20.9724L214.094 32.8104C213.999 34.3345 213.044 35.5694 211.961 35.5694Z" fill="white"/>
<path d="M204.113 35.5694C203.03 35.5694 202.228 34.3345 202.322 32.8104L202.847 24.3693C202.942 22.8452 203.897 21.6103 204.981 21.6103C206.064 21.6103 206.867 22.8452 206.772 24.3693L206.247 32.8104C206.152 34.3345 205.197 35.5694 204.113 35.5694Z" fill="white"/>
</g>
<g opacity="0.8">
<path d="M61.9033 35.5694H52.0522C51.4383 35.5694 50.9847 34.8699 51.0387 34.0063L51.501 26.5663C51.5549 25.7027 52.096 25.0032 52.7085 25.0032H62.5596C63.1735 25.0032 63.627 25.7027 63.5731 26.5663L63.1108 34.0063C63.0568 34.8699 62.5172 35.5694 61.9033 35.5694Z" fill="white"/>
<path d="M66.4708 33.551C65.8568 33.551 65.4033 32.8515 65.4573 31.9879L65.6687 28.5848C65.7227 27.7212 66.2637 27.0217 66.8762 27.0217C67.4902 27.0217 67.9437 27.7212 67.8898 28.5848L67.6783 31.9879C67.6258 32.8515 67.0848 33.551 66.4708 33.551Z" fill="white"/>
</g>
<path d="M157.502 207.435C177.126 181.013 179.081 139.09 161.869 113.798C144.657 88.5058 114.796 89.4222 95.1718 115.845C75.5477 142.267 73.5922 184.19 90.8041 209.482C108.016 234.774 137.877 233.857 157.502 207.435Z" fill="white"/>
<path d="M126.487 159.082C114.113 159.082 103.669 165.703 102.775 180.093L101.782 196.062H146.595L147.588 180.093C148.482 165.703 138.863 159.082 126.487 159.082Z" fill="#407BFF"/>
<path d="M126.897 152.505C132.64 152.505 135.288 145.958 135.79 137.88C136.293 129.802 134.459 123.254 128.716 123.254C122.973 123.254 120.324 129.802 119.821 137.88C119.32 145.958 121.154 152.505 126.897 152.505Z" fill="#407BFF"/>
<path d="M170.882 253.451C167.825 253.451 165.246 255.086 165.025 258.641L164.78 262.586H175.849L176.094 258.641C176.314 255.086 173.939 253.451 170.882 253.451Z" fill="#407BFF"/>
<path d="M170.983 251.827C172.402 251.827 173.055 250.208 173.179 248.214C173.303 246.218 172.851 244.602 171.432 244.602C170.013 244.602 169.36 246.22 169.236 248.214C169.112 250.21 169.565 251.827 170.983 251.827Z" fill="#407BFF"/>
<path d="M136.802 345.05H93.0388C87.9273 345.05 84.1459 339.222 84.5936 332.03C85.0413 324.84 89.5476 319.01 94.659 319.01H138.422C143.534 319.01 147.315 324.84 146.868 332.03C146.42 339.222 141.914 345.05 136.802 345.05Z" fill="#407BFF"/>
<path d="M131.523 490.24H84.6855C79.2838 490.24 75.288 484.08 75.7605 476.482L78.7486 428.43C79.2211 420.832 83.9826 414.672 89.3843 414.672H136.222C141.623 414.672 145.619 420.832 145.147 428.43L142.159 476.482C141.686 484.08 136.925 490.24 131.523 490.24Z" fill="#407BFF"/>
<g opacity="0.6">
<path d="M117.078 440.568C117.362 435.996 114.958 432.289 111.707 432.289C108.456 432.289 105.591 435.996 105.306 440.568C105.137 443.29 105.935 445.686 107.284 447.194L106.254 463.739C106.085 466.455 107.513 468.656 109.444 468.656C111.375 468.656 113.076 466.455 113.246 463.739L114.275 447.194C115.814 445.686 116.909 443.292 117.078 440.568Z" fill="white"/>
</g>
<path d="M136.637 424.674H130.601L132.08 400.9C132.968 386.613 125.429 374.99 115.271 374.99C105.114 374.99 96.1276 386.613 95.2395 400.9L93.7607 424.674H87.7247L89.2034 400.9C90.3832 381.932 102.314 366.5 115.799 366.5C129.284 366.5 139.296 381.932 138.116 400.9L136.637 424.674Z" fill="#407BFF"/>
<path d="M171.623 289.862L171.764 287.581C171.91 285.248 170.679 283.353 169.021 283.353C167.363 283.353 165.897 285.25 165.753 287.581L165.612 289.862C164.95 289.862 164.366 290.617 164.309 291.548L163.932 297.611C163.873 298.543 164.363 299.298 165.025 299.298H171.034C171.696 299.298 172.279 298.543 172.337 297.611L172.715 291.548C172.773 290.617 172.285 289.862 171.623 289.862ZM168.957 284.395C170.205 284.395 171.131 285.823 171.023 287.579L170.882 289.86H166.354L166.495 287.579C166.605 285.823 167.709 284.395 168.957 284.395Z" fill="#407BFF"/>
<path d="M81.1708 292.29L79.0738 291.681C78.8259 291.609 78.6975 291.242 78.801 290.898L79.6746 287.993C79.8628 287.369 79.3231 286.908 78.9833 287.402L77.3982 289.7C77.21 289.972 76.9081 289.972 76.755 289.7L75.4557 287.402C75.1771 286.91 74.5807 287.369 74.69 287.993L75.2019 290.898C75.2631 291.242 75.0896 291.609 74.8315 291.681L72.6586 292.29C72.1919 292.422 72.135 293.343 72.5856 293.474L74.6827 294.083C74.9307 294.155 75.059 294.522 74.9554 294.867L74.0819 297.771C73.8937 298.395 74.4333 298.857 74.7731 298.362L76.3583 296.065C76.5465 295.792 76.8484 295.792 77.0015 296.065L78.3009 298.362C78.5794 298.857 79.1758 298.395 79.0665 297.771L78.5546 294.867C78.4934 294.522 78.6669 294.155 78.925 294.083L81.0979 293.474C81.5646 293.343 81.6215 292.42 81.1708 292.29Z" fill="#263238"/>
<path d="M94.9711 292.29L92.874 291.681C92.6261 291.609 92.4978 291.242 92.6013 290.898L93.4749 287.993C93.663 287.369 93.1234 286.908 92.7836 287.402L91.1984 289.7C91.0103 289.972 90.7099 289.972 90.5553 289.7L89.2559 287.402C88.9773 286.91 88.3809 287.369 88.4903 287.993L89.0022 290.898C89.0634 291.242 88.8884 291.609 88.6317 291.681L86.4588 292.29C85.9921 292.422 85.9353 293.343 86.3844 293.474L88.4815 294.083C88.7294 294.155 88.8578 294.522 88.7542 294.867L87.8807 297.771C87.6926 298.395 88.2321 298.857 88.5719 298.362L90.1572 296.065C90.3453 295.792 90.6457 295.792 90.8003 296.065L92.0997 298.362C92.3782 298.857 92.9747 298.395 92.8653 297.771L92.3534 294.867C92.2922 294.522 92.4672 294.155 92.7238 294.083L94.8968 293.474C95.3649 293.343 95.4218 292.42 94.9711 292.29Z" fill="#263238"/>
<path d="M108.771 292.29L106.674 291.681C106.426 291.609 106.298 291.242 106.402 290.898L107.275 287.993C107.463 287.369 106.924 286.908 106.584 287.402L104.999 289.7C104.811 289.972 104.509 289.972 104.356 289.7L103.056 287.402C102.778 286.91 102.181 287.369 102.291 287.993L102.802 290.898C102.864 291.242 102.69 291.609 102.432 291.681L100.259 292.29C99.7924 292.422 99.7355 293.343 100.185 293.474L102.282 294.083C102.53 294.155 102.658 294.522 102.554 294.867L101.681 297.771C101.493 298.395 102.032 298.857 102.372 298.362L103.957 296.065C104.146 295.792 104.447 295.792 104.601 296.065L105.9 298.362C106.178 298.857 106.775 298.395 106.666 297.771L106.154 294.867C106.092 294.522 106.266 294.155 106.524 294.083L108.697 293.474C109.165 293.343 109.222 292.42 108.771 292.29Z" fill="#263238"/>
<path d="M122.573 292.29L120.476 291.681C120.228 291.609 120.1 291.242 120.203 290.898L121.077 287.993C121.265 287.369 120.725 286.908 120.386 287.402L118.8 289.7C118.612 289.972 118.31 289.972 118.157 289.7L116.858 287.402C116.579 286.91 115.983 287.369 116.092 287.993L116.604 290.898C116.665 291.242 116.492 291.609 116.234 291.681L114.061 292.29C113.594 292.422 113.537 293.343 113.988 293.474L116.085 294.083C116.333 294.155 116.461 294.522 116.358 294.867L115.484 297.771C115.296 298.395 115.836 298.857 116.175 298.362L117.761 296.065C117.949 295.792 118.251 295.792 118.404 296.065L119.703 298.362C119.982 298.857 120.578 298.395 120.469 297.771L119.957 294.867C119.896 294.522 120.069 294.155 120.327 294.083L122.5 293.474C122.965 293.343 123.024 292.42 122.573 292.29Z" fill="#263238"/>
<path d="M136.373 292.29L134.276 291.681C134.028 291.609 133.9 291.242 134.004 290.898L134.877 287.993C135.065 287.369 134.526 286.908 134.186 287.402L132.601 289.7C132.413 289.972 132.111 289.972 131.958 289.7L130.658 287.402C130.38 286.91 129.783 287.369 129.893 287.993L130.404 290.898C130.466 291.242 130.292 291.609 130.034 291.681L127.861 292.29C127.394 292.422 127.338 293.343 127.787 293.474L129.884 294.083C130.132 294.155 130.26 294.522 130.156 294.867L129.283 297.771C129.096 298.395 129.634 298.857 129.974 298.362L131.559 296.065C131.747 295.792 132.048 295.792 132.203 296.065L133.502 298.362C133.78 298.857 134.377 298.395 134.268 297.771L133.756 294.867C133.694 294.522 133.869 294.155 134.126 294.083L136.299 293.474C136.766 293.343 136.824 292.42 136.373 292.29Z" fill="#263238"/>
<path d="M150.174 292.29L148.077 291.681C147.829 291.609 147.7 291.242 147.804 290.898L148.677 287.993C148.864 287.369 148.326 286.908 147.986 287.402L146.401 289.7C146.213 289.972 145.912 289.972 145.758 289.7L144.458 287.402C144.18 286.91 143.583 287.369 143.693 287.993L144.205 290.898C144.266 291.242 144.091 291.609 143.834 291.681L141.661 292.29C141.195 292.422 141.138 293.343 141.587 293.474L143.684 294.083C143.932 294.155 144.06 294.522 143.957 294.867L143.083 297.771C142.895 298.395 143.435 298.857 143.774 298.362L145.36 296.065C145.548 295.792 145.85 295.792 146.003 296.065L147.302 298.362C147.581 298.857 148.177 298.395 148.068 297.771L147.556 294.867C147.495 294.522 147.668 294.155 147.926 294.083L150.099 293.474C150.566 293.343 150.624 292.42 150.174 292.29Z" fill="#263238"/>
<path d="M116.909 249.816H90.9971C89.3871 249.816 87.9682 251.652 87.8267 253.917C87.6853 256.181 88.8767 258.017 90.4867 258.017H116.398C118.008 258.017 119.427 256.181 119.569 253.917C119.71 251.652 118.519 249.816 116.909 249.816Z" fill="#263238"/>
<path d="M143.213 249.816H128.178C126.567 249.816 125.149 251.652 125.007 253.917C124.866 256.181 126.057 258.017 127.667 258.017H142.703C144.313 258.017 145.732 256.181 145.873 253.917C146.014 251.652 144.823 249.816 143.213 249.816Z" fill="#263238"/>
<path d="M163.062 435.77C153.293 441.257 144.728 449.261 138.866 458.363C135.428 454.248 130.541 451.391 124.683 450.084L123.996 449.93L123.696 454.769L124.08 454.972C129.862 458.045 134.568 463.497 137.69 470.736L138.18 471.875L138.723 470.654C144.731 457.124 153.493 445.788 163.392 438.736L163.727 438.496L163.927 435.28L163.062 435.77Z" fill="#263238"/>
</svg>
