<svg width="476" height="428" viewBox="0 0 476 428" fill="none" xmlns="http://www.w3.org/2000/svg">
<path d="M418.862 365.192C409.133 374.26 399.928 380.108 392.655 384.728C307.164 439.035 206.006 423.205 184.507 419.339C152.76 413.63 91.3928 402.595 47.0257 356.403C-20.0979 286.517 -9.64578 176.414 42.4198 103.733C51.9434 90.4384 102.25 16.6508 204.498 4.81754C266.377 -2.3438 338.508 12.0998 390.744 50.8452C500.391 132.175 492.585 296.477 418.862 365.192Z" fill="url(#paint0_linear_74_1146)"/>
<path d="M90.6471 121.381C90.6912 119.326 92.6109 117.672 94.9637 117.672H237.678C240.062 117.672 242.595 119.377 242.595 121.46V412.416C242.595 413.97 241.587 415.461 240.327 416.559C239.066 417.657 237.208 418.272 235.428 418.268L91.1506 417.924C89.3552 417.919 87.5998 417.286 86.3439 416.165C85.088 415.044 84.381 413.526 84.4147 411.958L90.6471 121.381Z" fill="#BDD0FB"/>
<g opacity="0.52">
<path d="M172.606 138.292L219.291 138.151L219.274 133.048L172.641 133.177L172.606 138.292Z" fill="white"/>
<path d="M172.478 157.087L219.355 156.9L219.338 151.755L172.513 151.929L172.478 157.087Z" fill="white"/>
<path d="M172.349 176.037L219.419 175.803L219.402 170.616L172.384 170.837L172.349 176.037Z" fill="white"/>
<path d="M172.219 195.144L219.485 194.864L219.467 189.634L172.254 189.901L172.219 195.144Z" fill="white"/>
<path d="M172.087 214.411L219.55 214.082L219.532 208.809L172.123 209.124L172.087 214.411Z" fill="white"/>
<path d="M171.822 253.43L219.683 253.003L219.665 247.641L171.858 248.054L171.822 253.43Z" fill="white"/>
<path d="M171.415 313.204L219.886 312.623L219.868 307.123L171.452 307.69L171.415 313.204Z" fill="white"/>
<path d="M171.955 233.839L219.616 233.461L219.598 228.144L171.992 228.508L171.955 233.839Z" fill="white"/>
<path d="M171.687 273.187L219.75 272.709L219.732 267.302L171.724 267.765L171.687 273.187Z" fill="white"/>
<path d="M171.552 293.111L219.818 292.582L219.799 287.128L171.589 287.643L171.552 293.111Z" fill="white"/>
<path d="M171.277 333.469L219.955 332.835L219.936 327.288L171.314 327.908L171.277 333.469Z" fill="white"/>
<path d="M171.137 353.908L220.025 353.22L220.006 347.626L171.176 348.299L171.137 353.908Z" fill="white"/>
<path d="M170.997 374.524L220.095 373.781L220.076 368.139L171.036 368.866L170.997 374.524Z" fill="white"/>
<path d="M170.855 395.317L220.166 394.519L220.146 388.828L170.895 389.611L170.855 395.317Z" fill="white"/>
<path d="M111.398 138.477L158.376 138.335L158.427 133.216L111.502 133.346L111.398 138.477Z" fill="white"/>
<path d="M111.017 157.332L158.19 157.144L158.241 151.983L111.122 152.158L111.017 157.332Z" fill="white"/>
<path d="M110.633 176.343L158.001 176.108L158.053 170.904L110.738 171.126L110.633 176.343Z" fill="white"/>
<path d="M110.245 195.512L157.811 195.23L157.864 189.983L110.352 190.252L110.245 195.512Z" fill="white"/>
<path d="M109.855 214.842L157.62 214.511L157.673 209.22L109.962 209.538L109.855 214.842Z" fill="white"/>
<path d="M109.063 253.99L157.232 253.56L157.286 248.18L109.173 248.596L109.063 253.99Z" fill="white"/>
<path d="M107.852 313.966L156.639 313.381L156.694 307.863L107.963 308.433L107.852 313.966Z" fill="white"/>
<path d="M109.461 234.334L157.427 233.954L157.48 228.619L109.569 228.985L109.461 234.334Z" fill="white"/>
<path d="M108.663 273.813L157.036 273.332L157.09 267.907L108.773 268.373L108.663 273.813Z" fill="white"/>
<path d="M108.259 293.804L156.838 293.272L156.893 287.8L108.37 288.318L108.259 293.804Z" fill="white"/>
<path d="M107.441 334.3L156.438 333.662L156.493 328.097L107.553 328.72L107.441 334.3Z" fill="white"/>
<path d="M107.026 354.81L156.234 354.118L156.29 348.504L107.14 349.181L107.026 354.81Z" fill="white"/>
<path d="M106.608 375.498L156.03 374.75L156.086 369.088L106.723 369.82L106.608 375.498Z" fill="white"/>
<path d="M106.186 396.364L155.823 395.561L155.88 389.85L106.302 390.638L106.186 396.364Z" fill="white"/>
</g>
<path d="M8.75093 201.635C8.81352 199.259 11.5265 197.303 14.8519 197.303H140.548C143.918 197.303 147.228 199.361 147.228 201.769V417.078C147.228 418.237 146.294 419.349 145.146 420.167C143.998 420.985 142.297 421.443 140.676 421.44L9.2537 421.184C7.61831 421.18 6.01722 420.708 4.87346 419.873C3.7297 419.037 3.08477 417.883 3.11529 416.714L8.75093 201.635Z" fill="#BDD0FB"/>
<path d="M101.32 222.674L137.128 222.64L137.412 209.521H101.569L101.32 222.674Z" fill="url(#paint1_linear_74_1146)"/>
<path d="M61.1826 222.668L96.9547 222.633L97.1999 209.521H61.393L61.1826 222.668Z" fill="url(#paint2_linear_74_1146)"/>
<path d="M21.0862 222.661L56.8224 222.627L57.0285 209.521H21.2578L21.0862 222.661Z" fill="url(#paint3_linear_74_1146)"/>
<path d="M100.872 246.223L136.618 246.24L136.901 233.206L101.121 233.195L100.872 246.223Z" fill="url(#paint4_linear_74_1146)"/>
<path d="M60.8052 246.205L96.515 246.221L96.7594 233.194L61.0149 233.183L60.8052 246.205Z" fill="url(#paint5_linear_74_1146)"/>
<path d="M20.7786 246.187L56.4526 246.203L56.658 233.182L20.9495 233.172L20.7786 246.187Z" fill="url(#paint6_linear_74_1146)"/>
<path d="M100.426 269.61L136.109 269.637L136.391 256.649L100.673 256.628L100.426 269.61Z" fill="url(#paint7_linear_74_1146)"/>
<path d="M60.429 269.58L96.0767 269.607L96.32 256.625L60.6378 256.604L60.429 269.58Z" fill="url(#paint8_linear_74_1146)"/>
<path d="M20.4717 269.55L56.0836 269.577L56.2882 256.602L20.642 256.581L20.4717 269.55Z" fill="url(#paint9_linear_74_1146)"/>
<path d="M99.9814 292.917L135.603 292.954L135.884 280.01L100.228 279.979L99.9814 292.917Z" fill="url(#paint10_linear_74_1146)"/>
<path d="M60.054 292.875L95.64 292.912L95.8824 279.975L60.2621 279.943L60.054 292.875Z" fill="url(#paint11_linear_74_1146)"/>
<path d="M20.166 292.833L55.7162 292.87L55.9203 279.94L20.3356 279.908L20.166 292.833Z" fill="url(#paint12_linear_74_1146)"/>
<path d="M99.5391 316.142L135.099 316.189L135.379 303.291L99.785 303.249L99.5391 316.142Z" fill="url(#paint13_linear_74_1146)"/>
<path d="M59.6804 316.089L95.2047 316.136L95.4463 303.244L59.8879 303.202L59.6804 316.089Z" fill="url(#paint14_linear_74_1146)"/>
<path d="M19.8613 316.036L55.3501 316.083L55.5533 303.197L20.0304 303.156L19.8613 316.036Z" fill="url(#paint15_linear_74_1146)"/>
<path d="M99.0977 339.288L134.596 339.345L134.875 326.491L99.3425 326.439L99.0977 339.288Z" fill="url(#paint16_linear_74_1146)"/>
<path d="M59.3079 339.223L94.7708 339.28L95.0115 326.432L59.5147 326.38L59.3079 339.223Z" fill="url(#paint17_linear_74_1146)"/>
<path d="M19.5579 339.158L54.9853 339.216L55.1878 326.374L19.7264 326.322L19.5579 339.158Z" fill="url(#paint18_linear_74_1146)"/>
<path d="M98.6575 362.353L134.094 362.421L134.373 349.611L98.9016 349.549L98.6575 362.353Z" fill="url(#paint19_linear_74_1146)"/>
<path d="M58.9365 362.277L94.3382 362.345L94.5781 349.541L59.1425 349.479L58.9365 362.277Z" fill="url(#paint20_linear_74_1146)"/>
<path d="M19.2551 362.201L54.6215 362.269L54.8235 349.471L19.4232 349.409L19.2551 362.201Z" fill="url(#paint21_linear_74_1146)"/>
<path d="M98.2192 385.339L133.595 385.417L133.872 372.651L98.4626 372.579L98.2192 385.339Z" fill="url(#paint22_linear_74_1146)"/>
<path d="M58.5669 385.252L93.9074 385.33L94.1466 372.57L58.7722 372.498L58.5669 385.252Z" fill="url(#paint23_linear_74_1146)"/>
<path d="M18.9539 385.165L54.2593 385.243L54.4603 372.489L19.1212 372.417L18.9539 385.165Z" fill="url(#paint24_linear_74_1146)"/>
<path d="M97.7825 408.247L133.097 408.335L133.373 395.613L98.0249 395.531L97.7825 408.247Z" fill="url(#paint25_linear_74_1146)"/>
<path d="M58.1982 408.149L93.478 408.236L93.7165 395.52L58.4028 395.438L58.1982 408.149Z" fill="url(#paint26_linear_74_1146)"/>
<path d="M18.6533 408.05L53.8979 408.138L54.0986 395.428L18.82 395.346L18.6533 408.05Z" fill="url(#paint27_linear_74_1146)"/>
<path d="M336.855 206.777C336.917 204.4 339.63 202.445 342.956 202.445H468.652C472.022 202.445 475.332 204.502 475.332 206.911V422.22C475.332 423.379 474.398 424.49 473.25 425.309C472.102 426.127 470.401 426.585 468.78 426.582L337.358 426.325C335.722 426.322 334.121 425.85 332.978 425.014C331.834 424.179 331.189 423.024 331.22 421.856L336.855 206.777Z" fill="#BDD0FB"/>
<g opacity="0.5">
<path d="M429.423 227.816L465.232 227.782L465.516 214.662H429.673L429.423 227.816Z" fill="white"/>
<path d="M389.287 227.809L425.059 227.775L425.304 214.662H389.497L389.287 227.809Z" fill="white"/>
<path d="M349.19 227.803L384.926 227.768L385.133 214.662H349.362L349.19 227.803Z" fill="white"/>
<path d="M428.976 251.365L464.722 251.381L465.005 238.348L429.224 238.337L428.976 251.365Z" fill="white"/>
<path d="M388.909 251.347L424.619 251.363L424.863 238.336L389.119 238.325L388.909 251.347Z" fill="white"/>
<path d="M348.883 251.328L384.556 251.345L384.762 238.324L349.053 238.313L348.883 251.328Z" fill="white"/>
<path d="M428.53 274.752L464.213 274.779L464.496 261.79L428.777 261.769L428.53 274.752Z" fill="white"/>
<path d="M388.533 274.722L424.181 274.749L424.424 261.767L388.742 261.746L388.533 274.722Z" fill="white"/>
<path d="M348.576 274.692L384.188 274.719L384.392 261.743L348.746 261.722L348.576 274.692Z" fill="white"/>
<path d="M428.086 298.058L463.707 298.095L463.988 285.151L428.333 285.12L428.086 298.058Z" fill="white"/>
<path d="M388.158 298.016L423.744 298.053L423.986 285.116L388.366 285.085L388.158 298.016Z" fill="white"/>
<path d="M348.27 297.975L383.821 298.012L384.024 285.081L348.44 285.05L348.27 297.975Z" fill="white"/>
<path d="M427.643 321.284L463.202 321.331L463.482 308.432L427.889 308.391L427.643 321.284Z" fill="white"/>
<path d="M387.784 321.23L423.309 321.278L423.55 308.385L387.992 308.344L387.784 321.23Z" fill="white"/>
<path d="M347.965 321.177L383.454 321.225L383.658 308.339L348.135 308.297L347.965 321.177Z" fill="white"/>
<path d="M427.201 344.429L462.7 344.487L462.979 331.632L427.446 331.58L427.201 344.429Z" fill="white"/>
<path d="M387.412 344.365L422.875 344.422L423.116 331.574L387.618 331.522L387.412 344.365Z" fill="white"/>
<path d="M347.662 344.3L383.089 344.358L383.292 331.516L347.83 331.464L347.662 344.3Z" fill="white"/>
<path d="M426.762 367.495L462.198 367.563L462.477 354.752L427.006 354.69L426.762 367.495Z" fill="white"/>
<path d="M387.041 367.419L422.442 367.486L422.682 354.683L387.247 354.621L387.041 367.419Z" fill="white"/>
<path d="M347.359 367.343L382.726 367.411L382.928 354.613L347.527 354.551L347.359 367.343Z" fill="white"/>
<path d="M426.323 390.481L461.699 390.559L461.977 377.793L426.567 377.721L426.323 390.481Z" fill="white"/>
<path d="M386.671 390.394L422.012 390.472L422.251 377.712L386.876 377.64L386.671 390.394Z" fill="white"/>
<path d="M347.058 390.307L382.363 390.384L382.564 377.631L347.225 377.559L347.058 390.307Z" fill="white"/>
<path d="M425.886 413.389L461.201 413.477L461.478 400.754L426.129 400.672L425.886 413.389Z" fill="white"/>
<path d="M386.302 413.29L421.582 413.378L421.821 400.662L386.507 400.58L386.302 413.29Z" fill="white"/>
<path d="M346.757 413.192L382.002 413.28L382.203 400.57L346.924 400.488L346.757 413.192Z" fill="white"/>
</g>
<path d="M211.898 265.348C201.639 236.377 181.791 213.288 158.281 199.715C137.264 187.582 122.122 168.685 116.516 146.857C115.926 144.563 115.226 142.262 114.411 139.962C102.074 105.119 68.2347 83.7032 38.8296 92.1275C9.42421 100.552 -4.41203 135.626 7.92565 170.469C10.4481 177.593 13.8705 184.155 17.9702 190.014C31.0543 208.713 36.1743 231.14 31.3602 252.832C27.0573 272.218 28.2249 294.044 35.9159 315.765C47.3864 348.159 70.8467 373.2 98.0111 385.807C108.286 390.575 117.551 396.987 125.223 404.735C137.973 417.611 155.942 423.663 172.451 418.934C190.26 413.831 201.386 397.61 202.187 378.683C202.64 367.973 205.439 357.475 210.003 347.551C220.775 324.122 222.27 294.639 211.898 265.348Z" fill="#91B3FA"/>
<path opacity="0.57" d="M62.251 126.243C74.2462 148.17 85.445 170.427 96.3836 192.788C99.1209 198.377 101.758 204.006 104.415 209.626L108.399 218.058L112.304 226.519C114.883 232.169 117.549 237.787 120.057 243.464L127.581 260.493C132.435 271.903 137.397 283.275 142.014 294.767C144.332 300.509 146.774 306.21 148.961 311.995L155.611 329.319C164.216 352.498 172.175 375.883 178.797 399.585L177.66 399.854L171.951 382.29L170.535 377.898L168.997 373.538L165.902 364.824L162.826 356.106C161.806 353.199 160.666 350.325 159.592 347.433C157.401 341.662 155.261 335.875 153.029 330.117C143.932 307.136 134.494 284.263 124.531 261.57C119.452 250.257 114.482 238.906 109.315 227.625L105.466 219.154L101.538 210.713C98.9226 205.084 96.3073 199.455 93.6286 193.85C88.3783 182.599 83.0374 171.38 77.5947 160.202C72.2171 148.998 66.7206 137.836 61.188 126.695L62.251 126.243Z" fill="white"/>
<path d="M297.715 207.762C292.921 176.122 277.075 149.004 255.558 131.131C236.324 115.154 224.49 93.1393 223.065 69.6472C222.915 67.1779 222.652 64.6835 222.272 62.1715C216.506 24.1196 185.912 -3.54988 153.937 0.370049C121.963 4.28983 100.716 38.3147 106.482 76.3666C107.661 84.1476 109.879 91.4925 112.935 98.2215C122.688 119.696 123.493 143.73 114.209 165.382C105.912 184.733 102.764 207.5 106.358 231.221C111.719 266.599 130.898 296.327 156.371 313.795C166.007 320.402 174.274 328.545 180.634 337.811C191.204 353.208 208.509 362.398 226.461 360.197C245.826 357.823 260.522 342.857 265.12 323.411C267.721 312.406 272.698 302.004 279.378 292.482C295.147 270.005 302.563 239.751 297.715 207.762Z" fill="#7D97F4"/>
<path opacity="0.57" d="M171.267 39.4774C179.255 64.1137 186.356 88.961 193.169 113.875C194.875 120.103 196.469 126.354 198.086 132.601L200.51 141.972L202.847 151.361C204.378 157.626 206.005 163.872 207.457 170.153L211.815 188.994C214.541 201.588 217.387 214.16 219.853 226.8C221.096 233.117 222.475 239.412 223.576 245.753L226.974 264.757C231.219 290.135 234.758 315.621 236.856 341.219L235.631 341.311L233.25 322.213L232.667 317.439L231.951 312.678L230.499 303.159L229.067 293.64C228.597 290.467 227.994 287.309 227.465 284.142C226.358 277.815 225.307 271.481 224.155 265.161C219.363 239.906 214.199 214.709 208.457 189.61C205.479 177.081 202.622 164.529 199.547 152.018L197.27 142.629L194.905 133.257C193.333 127.008 191.761 120.759 190.118 114.524C186.952 102.03 183.685 89.5555 180.306 77.1053C176.999 64.6392 173.561 52.198 170.081 39.7722L171.267 39.4774Z" fill="white"/>
<path d="M444.676 425.224H165.568C163.387 425.224 161.618 423.634 161.618 421.672V82.4153C161.618 80.4531 163.387 78.8624 165.568 78.8624H444.676C446.857 78.8624 448.626 80.4531 448.626 82.4153V421.672C448.626 423.634 446.857 425.224 444.676 425.224Z" fill="url(#paint28_linear_74_1146)"/>
<path d="M399.766 379.599H209.866C202.667 379.599 196.832 374.35 196.832 367.875V142.622C196.832 136.147 202.667 130.898 209.866 130.898H399.766C406.964 130.898 412.8 136.147 412.8 142.622V367.875C412.8 374.35 406.964 379.599 399.766 379.599Z" fill="#7D97F4"/>
<path d="M392.58 362.297H217.223C215.063 362.297 213.312 360.723 213.312 358.78V154.873C213.312 152.931 215.063 151.356 217.223 151.356H392.58C394.739 151.356 396.49 152.931 396.49 154.873V358.78C396.49 360.723 394.739 362.297 392.58 362.297Z" fill="url(#paint29_linear_74_1146)"/>
<path d="M304.598 113.144C309.34 113.144 313.184 109.686 313.184 105.421C313.184 101.156 309.34 97.698 304.598 97.698C299.856 97.698 296.012 101.156 296.012 105.421C296.012 109.686 299.856 113.144 304.598 113.144Z" fill="url(#paint30_linear_74_1146)"/>
<path d="M360.068 230.097L249.607 231.749C241.199 231.875 234.359 237.755 234.359 244.883V307.456C234.359 314.583 241.199 320.115 249.607 319.811L360.068 315.821C368.003 315.534 374.413 309.719 374.413 302.83V242.356C374.412 235.467 368.003 229.979 360.068 230.097Z" fill="url(#paint31_linear_74_1146)"/>
<path d="M365.659 218.78C362.314 218.825 359.597 216.503 359.597 213.593V199.898C359.597 186.159 346.678 175.015 330.684 175.057L294.699 175.15C278.293 175.193 264.849 186.666 264.849 200.726V214.74C264.849 217.718 262.001 220.17 258.482 220.218C254.957 220.265 252.095 217.882 252.095 214.895V200.837C252.095 180.77 271.315 164.444 294.699 164.444H330.684C353.404 164.444 371.703 180.301 371.703 199.792V213.446C371.703 216.347 368.999 218.735 365.659 218.78Z" fill="url(#paint32_linear_74_1146)"/>
<path d="M322.709 264.775C322.709 257.822 315.96 252.362 307.755 252.864C300.5 253.307 294.501 258.533 294.109 264.773C293.805 269.615 296.763 273.801 301.26 275.917C303.173 276.818 304.123 278.715 303.751 280.593L300.597 296.512C300.196 298.54 302.008 300.321 304.391 300.244L312.497 299.983C314.868 299.907 316.667 298.016 316.269 296.022L313.117 280.25C312.741 278.369 313.828 276.5 315.746 275.468C319.917 273.225 322.709 269.247 322.709 264.775Z" fill="url(#paint33_linear_74_1146)"/>
<path d="M100.855 425.83C100.857 425.693 100.847 425.555 100.808 425.416C98.5173 417.248 87.1483 412.16 87.1483 412.16L82.6432 412.478C80.053 419.677 80.3859 424.093 80.8019 426.06C80.8134 426.115 80.8321 426.167 80.8484 426.22C84.5646 426.519 92.2136 426.714 100.855 425.83Z" fill="url(#paint34_linear_74_1146)"/>
<path d="M80.8484 426.22C81.049 426.877 81.5881 427.389 82.278 427.519C87.5645 428.519 95.9668 427.714 99.4946 427.3C100.273 427.208 100.842 426.561 100.855 425.83C92.2136 426.714 84.5647 426.519 80.8484 426.22Z" fill="#91B3FA"/>
<path d="M80.8323 406.442L82.7403 414.704C82.8801 415.309 83.3972 415.763 84.0237 415.816C84.7903 415.88 85.882 415.918 86.9798 415.773C87.9641 415.643 88.6496 414.744 88.4751 413.778L87.1488 406.442H80.8323Z" fill="url(#paint35_linear_74_1146)"/>
<path d="M120.366 426.116C115.39 425.991 112.817 425.464 111.486 424.974C111.483 425.419 111.486 425.872 111.502 426.342C111.519 426.843 111.932 427.243 112.439 427.24L139.758 427.081C140.63 427.076 141.14 426.167 140.762 425.448C137.18 425.714 128.057 426.309 120.366 426.116Z" fill="#91B3FA"/>
<path d="M140.762 425.448C140.729 425.385 140.701 425.321 140.654 425.262C138.241 422.23 132.096 416.192 119.954 413.573L114.129 413.408C114.129 413.408 111.535 417.463 111.486 424.975C112.817 425.464 115.39 425.991 120.366 426.116C128.057 426.31 137.18 425.714 140.762 425.448Z" fill="url(#paint36_linear_74_1146)"/>
<path d="M112.789 405.711C112.881 406.097 114.093 411.976 114.563 414.255C114.674 414.797 115.144 415.194 115.702 415.222C116.699 415.273 118.308 415.279 119.691 414.941C120.437 414.759 120.939 414.074 120.886 413.315L120.234 404.016L112.789 405.711Z" fill="url(#paint37_linear_74_1146)"/>
<path d="M108.375 297.163C108.375 297.163 116.388 346.69 122.171 405.626C122.279 406.724 121.306 407.679 120.108 407.906C118.341 408.241 115.744 408.638 113.595 408.584C112.447 408.555 111.488 407.789 111.295 406.771C109.325 396.38 95.268 340.611 91.5786 328.336C91.5786 328.336 87.3407 380.475 88.6954 407.524C88.7292 408.197 88.1816 408.78 87.4381 408.858C86.3101 408.975 84.5058 409.064 82.2094 408.844C81.3378 408.761 80.6345 408.169 80.5099 407.388C79.1067 398.593 71.0302 346.245 71.3737 308.536C71.3931 306.409 74.1475 288.937 74.1475 288.937L108.375 297.163Z" fill="url(#paint38_linear_74_1146)"/>
<path d="M111.48 213.875L112.553 239.792C115.6 240.735 118.501 241.469 121.264 242.017C122.992 237.013 126.797 230.871 129.912 226.305C118.465 222.665 111.48 213.875 111.48 213.875Z" fill="url(#paint39_linear_74_1146)"/>
<path d="M72.9432 300.018C72.1192 299.754 71.545 299.082 71.4553 298.3C70.3897 289.001 65.2304 231.345 97.8024 207.627C97.8024 207.627 99.6703 203.231 115.024 214.037C130.378 224.843 122.157 236.169 118.481 251.792C114.033 270.696 106.229 286.149 109.682 297.782C109.92 298.585 109.451 299.428 108.584 299.715C96.6574 303.669 84.7766 303.8 72.9432 300.018Z" fill="url(#paint40_linear_74_1146)"/>
<path d="M110.508 190.352C110.497 191.173 97.4912 207.79 97.4912 207.79C97.4912 207.79 99.8257 211.925 110.971 215.283L120.591 197.491L110.508 190.352Z" fill="url(#paint41_linear_74_1146)"/>
<path d="M104.064 247.212C103.983 247.212 103.901 247.191 103.828 247.147C93.4381 240.832 88.5503 230.64 88.5019 230.538C88.4112 230.344 88.5114 230.122 88.7259 230.04C88.9413 229.958 89.1884 230.048 89.2799 230.241C89.3271 230.341 94.124 240.332 104.301 246.518C104.495 246.635 104.545 246.871 104.414 247.045C104.333 247.154 104.2 247.212 104.064 247.212Z" fill="url(#paint42_linear_74_1146)"/>
<path d="M119.541 233.086C119.403 233.086 119.266 233.024 119.186 232.911C119.154 232.868 115.98 228.423 109.934 218.685C108.075 215.691 105.632 213.795 102.672 213.05C97.7708 211.818 93.0471 214.182 93.0004 214.205C92.797 214.306 92.54 214.245 92.4246 214.063C92.3095 213.88 92.38 213.649 92.5829 213.545C92.7866 213.441 97.6453 210.996 102.892 212.317C106.08 213.117 108.698 215.135 110.672 218.314C116.702 228.028 119.865 232.456 119.896 232.5C120.022 232.676 119.966 232.911 119.77 233.025C119.699 233.066 119.62 233.086 119.541 233.086Z" fill="url(#paint43_linear_74_1146)"/>
<path d="M120.748 180.83C120.748 180.83 125.376 190.393 125.686 195.412C125.997 200.431 127.2 203.688 120.748 204.698C114.296 205.709 108.861 202.818 105.916 197.819C105.916 197.819 101.303 190.115 102.338 186.96C103.373 183.805 120.748 180.83 120.748 180.83Z" fill="url(#paint44_linear_74_1146)"/>
<path d="M108.121 194.224L108.488 194.078C108.956 193.893 109.156 193.392 108.921 192.984C108.012 191.403 106.238 187.78 108.529 186.934C111.482 185.845 123.178 183.7 125.702 179.966C128.127 176.379 125.979 171.747 122.749 170.43C122.533 170.342 122.278 170.412 122.167 170.6L121.898 171.059C121.714 171.372 121.199 171.325 121.089 170.984C120.984 170.657 120.5 170.594 120.3 170.882C119.524 171.999 117.43 173.81 111.829 174.739C103.87 176.061 98.6073 178.958 98.4763 183.905C98.4681 184.22 98.0963 184.394 97.7978 184.231C97.2101 183.909 96.2697 183.757 95.0128 184.708C92.8268 186.361 93.7214 190.65 98.5134 194.178C98.7411 194.346 98.7392 194.665 98.4926 194.81C97.6239 195.318 96.3289 196.528 99.6844 198.142C103.155 199.811 105.747 199.674 106.745 199.526C106.993 199.489 107.153 199.273 107.099 199.052L106.034 194.704C105.974 194.457 106.182 194.224 106.462 194.224H108.121V194.224Z" fill="url(#paint45_linear_74_1146)"/>
<path d="M108.321 195.141C108.321 195.141 106.556 189.033 103.511 190.746C100.467 192.458 105.091 197.59 107.539 197.818L108.321 195.141Z" fill="url(#paint46_linear_74_1146)"/>
<path d="M168.248 211.926C168.248 211.926 165.928 208.227 166.075 206.429C166.223 204.632 164.978 201.993 166.303 202.188C167.628 202.383 167.901 202.224 168.261 204.381C168.621 206.537 172.802 215.957 168.248 211.926Z" fill="url(#paint47_linear_74_1146)"/>
<path d="M168.684 206.044L168.631 213.434C152.928 228.684 140.219 229.582 129.912 226.305C126.796 230.871 122.992 237.013 121.264 242.017C163.197 250.332 173.071 215.657 173.071 215.657C178.751 213.541 179.896 212.303 179.652 210.917L168.684 206.044Z" fill="url(#paint48_linear_74_1146)"/>
<path d="M180.76 198.713C179.42 198.223 176.797 193.726 176.295 195.205C175.792 196.685 176.507 198.713 176.295 199.342C176.083 199.971 172.813 207.209 173.466 208.817C173.937 209.978 176.533 209.806 176.929 211.704C177.061 212.334 177.621 212.786 178.27 212.787C178.919 212.787 179.479 212.336 179.612 211.706C179.665 211.453 182.1 199.202 180.76 198.713Z" fill="url(#paint49_linear_74_1146)"/>
<path d="M137.959 183.321C127.371 202.159 135.764 225.15 156.707 234.675C173.729 242.416 193.801 238.877 206.406 227.166L279.169 260.257C280.377 260.807 281.815 260.762 282.978 260.139L290.095 256.326C290.217 256.26 290.333 256.188 290.445 256.112C290.476 256.091 290.506 256.068 290.537 256.046C290.62 255.987 290.699 255.925 290.776 255.861C290.802 255.839 290.828 255.817 290.853 255.794C290.947 255.71 291.037 255.623 291.121 255.531C291.123 255.53 291.124 255.529 291.125 255.527C292.019 254.549 292.292 253.184 291.744 251.95L285.961 238.911C285.604 238.106 284.932 237.446 284.072 237.054L276.784 233.74L274.855 237.171L268.594 234.323L270.523 230.892L264.666 228.228L262.891 231.385L255.282 227.924L257.056 224.768L254.221 223.478L253.308 225.103L246.929 222.202L247.842 220.577L242.881 218.321L240.952 221.752L237.408 220.14L239.337 216.709L236.266 215.312L234.337 218.744L228.194 215.95L230.123 212.519L221.489 208.592L217.791 206.911C220.804 190.837 212.073 174.199 195.051 166.458C174.108 156.934 148.548 164.484 137.959 183.321ZM162.75 185.923C166.991 187.852 168.691 192.508 166.547 196.322C164.402 200.137 159.226 201.665 154.986 199.737C150.745 197.808 149.045 193.152 151.19 189.338C153.334 185.524 158.51 183.995 162.75 185.923Z" fill="url(#paint50_linear_74_1146)"/>
<path d="M196.939 194.865L231.432 210.552L229.504 213.983L235.646 216.777L237.575 213.345L240.647 214.742L238.718 218.173L242.262 219.785L244.19 216.354L249.152 218.61L248.238 220.235L254.617 223.136L255.531 221.511L258.366 222.801L256.591 225.957L264.201 229.418L265.975 226.261L271.833 228.925L269.904 232.356L276.165 235.204L278.093 231.773L285.382 235.087C286.242 235.478 286.914 236.139 287.271 236.944L293.054 249.983C293.775 251.608 293.075 253.463 291.404 254.359L284.288 258.172C283.124 258.795 281.687 258.84 280.478 258.29L192.641 218.343L196.939 194.865Z" fill="url(#paint51_linear_74_1146)"/>
<path d="M158.017 232.707C178.959 242.232 204.52 234.682 215.108 215.844C225.697 197.007 217.303 174.015 196.361 164.491C175.418 154.967 149.858 162.517 139.269 181.354C128.681 200.191 137.074 223.183 158.017 232.707ZM156.296 197.77C152.056 195.841 150.356 191.185 152.5 187.371C154.644 183.556 159.82 182.028 164.06 183.956C168.301 185.885 170.001 190.54 167.857 194.355C165.713 198.169 160.537 199.698 156.296 197.77Z" fill="url(#paint52_linear_74_1146)"/>
<path d="M207.716 225.199L280.479 258.29C281.687 258.84 283.125 258.795 284.288 258.172L291.405 254.359C292.478 253.784 293.143 252.812 293.296 251.76C286.664 245.297 223.626 220.537 221.268 215.441C220.429 213.628 220.286 210.883 222.799 206.625L219.101 204.944C222.114 188.87 213.383 172.232 196.361 164.491C175.418 154.967 149.858 162.517 139.269 181.354C128.681 200.191 137.074 223.183 158.017 232.707C175.038 240.449 195.111 236.91 207.716 225.199ZM164.06 183.956C168.301 185.885 170.001 190.541 167.857 194.355C165.712 198.169 160.536 199.698 156.296 197.77C152.055 195.841 150.355 191.186 152.5 187.371C154.644 183.557 159.82 182.028 164.06 183.956Z" fill="url(#paint53_linear_74_1146)"/>
<path d="M161.779 226.013C178.612 233.668 199.156 227.6 207.666 212.46C216.176 197.32 209.43 178.84 192.598 171.185C175.766 163.53 155.222 169.598 146.711 184.739C138.201 199.879 144.947 218.358 161.779 226.013ZM156.296 197.77C152.055 195.841 150.355 191.185 152.5 187.371C154.643 183.556 159.82 182.028 164.06 183.956C168.301 185.885 170.001 190.541 167.857 194.355C165.712 198.17 160.536 199.698 156.296 197.77Z" fill="url(#paint54_linear_74_1146)"/>
<path d="M104.064 247.212C104.064 247.212 144.079 259.261 166.461 243.933C167.849 242.982 169.6 242.568 171.323 242.82L179.873 244.073C183.462 244.599 186.881 242.507 187.655 239.311C188.096 237.488 188.308 235.494 187.859 233.781L171.717 232.905L172.178 231.021C172.178 231.021 165.044 232.591 164.9 237.612C164.9 237.612 148.165 247.473 117.64 232.168C117.64 232.168 105.754 240.535 104.064 247.212Z" fill="url(#paint55_linear_74_1146)"/>
<g opacity="0.3">
<path d="M413.127 66.7637C412.195 66.7294 411.471 66.0219 411.51 65.1841C411.584 63.5559 411.581 61.9008 411.5 60.2643C411.459 59.4363 412.163 58.7339 413.079 58.6816C413.09 58.681 413.1 58.6804 413.112 58.6798C414.043 58.6426 414.832 59.2918 414.873 60.13C414.958 61.8524 414.961 63.595 414.883 65.3088C414.848 66.0925 414.157 66.7132 413.305 66.7618C413.247 66.765 413.187 66.7661 413.127 66.7637ZM410.499 52.3233C410.171 50.7127 409.764 49.0997 409.288 47.5274C409.042 46.7188 409.573 45.8836 410.472 45.6629C411.376 45.4443 412.3 45.9199 412.545 46.7292C413.046 48.3833 413.476 50.0814 413.821 51.7757C413.989 52.6006 413.381 53.392 412.464 53.543C412.397 53.554 412.331 53.5612 412.265 53.5651C411.423 53.6132 410.655 53.0883 410.499 52.3233ZM406.362 39.9858C405.646 38.4855 404.848 36.9951 403.991 35.5551C403.551 34.8158 403.861 33.8953 404.683 33.4995C405.504 33.1048 406.527 33.3822 406.968 34.1215C407.871 35.6379 408.711 37.2079 409.464 38.7875C409.832 39.5581 409.436 40.451 408.579 40.7823C408.397 40.8528 408.208 40.8922 408.02 40.9028C407.328 40.9423 406.651 40.5922 406.362 39.9858ZM399.261 28.7906C398.189 27.4704 397.04 26.1772 395.848 24.9459C395.235 24.3134 395.309 23.354 396.012 22.8033C396.715 22.2531 397.781 22.3195 398.394 22.9508C399.649 24.2473 400.858 25.6092 401.987 26.998C402.537 27.6751 402.373 28.6254 401.62 29.12C401.351 29.2971 401.042 29.392 400.732 29.4097C400.176 29.4415 399.614 29.2251 399.261 28.7906ZM389.564 19.2972C388.196 18.2269 386.758 17.194 385.289 16.2283C384.536 15.7328 384.372 14.7827 384.922 14.1059C385.473 13.4284 386.529 13.2813 387.282 13.7769C388.827 14.793 390.341 15.88 391.78 17.0061C392.484 17.5561 392.558 18.5155 391.946 19.1484C391.638 19.4674 391.214 19.6426 390.779 19.6674C390.351 19.6916 389.913 19.5704 389.564 19.2972ZM377.774 11.9705C376.174 11.1976 374.518 10.4773 372.851 9.82887C371.995 9.49617 371.601 8.60202 371.971 7.83266C372.34 7.06267 373.334 6.70807 374.19 7.04078C375.945 7.72284 377.688 8.48156 379.372 9.29489C380.193 9.69206 380.501 10.6124 380.06 11.3514C379.774 11.8314 379.241 12.1161 378.678 12.1484C378.374 12.1658 378.062 12.11 377.774 11.9705ZM315.085 11.2636C314.646 10.5237 314.957 9.60368 315.78 9.20897C317.466 8.40074 319.214 7.64756 320.975 6.97105C321.832 6.64159 322.824 6.99975 323.19 7.77127C323.557 8.54202 323.158 9.43447 322.301 9.76393C320.629 10.4062 318.97 11.1216 317.369 11.8892C317.149 11.9946 316.916 12.0518 316.683 12.0651C316.042 12.1016 315.407 11.8063 315.085 11.2636ZM364.479 7.1799C362.73 6.74663 360.938 6.3763 359.153 6.08C358.236 5.9273 357.63 5.1351 357.799 4.31052C357.969 3.48532 358.849 2.9447 359.767 3.09323C361.646 3.40558 363.533 3.79535 365.375 4.25191C366.274 4.47463 366.802 5.31048 366.555 6.11933C366.358 6.76067 365.733 7.19224 365.034 7.23204C364.852 7.24237 364.665 7.22571 364.479 7.1799ZM328.623 6.07676C328.379 5.26745 328.912 4.43345 329.812 4.21443C331.656 3.7662 333.545 3.38367 335.428 3.07657C336.345 2.9231 337.224 3.47514 337.39 4.30003C337.556 5.12508 336.947 5.91526 336.03 6.06519C334.241 6.35702 332.445 6.72041 330.693 7.14674C330.581 7.17389 330.469 7.18977 330.357 7.19625C329.573 7.24098 328.835 6.78566 328.623 6.07676ZM350.331 5.18215C348.518 5.11197 346.679 5.1112 344.863 5.18045C343.931 5.21639 343.144 4.56595 343.104 3.72764C343.066 2.90074 343.769 2.20017 344.684 2.14788C344.695 2.14726 344.708 2.14649 344.719 2.14649C346.631 2.07307 348.568 2.07353 350.475 2.14711C351.407 2.18366 352.13 2.89194 352.089 3.72995C352.052 4.51242 351.362 5.1314 350.512 5.17999C350.452 5.18353 350.392 5.184 350.331 5.18215Z" fill="#91B3FA"/>
<path d="M306.77 17.9134C307.101 17.8944 307.43 17.7877 307.711 17.5875C308.392 17.1004 309.097 16.6185 309.804 16.1538C310.557 15.6596 310.722 14.7093 310.173 14.0322C309.623 13.3544 308.567 13.205 307.814 13.7009C307.07 14.1892 306.329 14.6962 305.611 15.2086C304.881 15.7299 304.759 16.6856 305.339 17.3419C305.696 17.7471 306.236 17.9439 306.77 17.9134Z" fill="#91B3FA"/>
</g>
<g opacity="0.3">
<path d="M282.157 58.5755C282.97 58.5291 283.648 57.9578 283.729 57.2049C283.811 56.4257 283.914 55.6347 284.033 54.8546C284.16 54.0235 283.514 53.2574 282.591 53.1431C281.663 53.0285 280.815 53.61 280.688 54.4406C280.563 55.2619 280.455 56.095 280.367 56.9154C280.278 57.7503 280.959 58.4918 281.887 58.572C281.978 58.5797 282.068 58.5806 282.157 58.5755Z" fill="#91B3FA"/>
<path d="M348.384 123.406C347.451 123.418 346.684 122.748 346.671 121.908C346.658 121.07 347.402 120.382 348.335 120.369C350.11 120.346 351.911 120.254 353.71 120.097C354.633 120.013 355.463 120.627 355.554 121.461C355.644 122.296 354.965 123.039 354.037 123.12C353.258 123.188 352.48 123.245 351.705 123.289C350.599 123.352 349.482 123.392 348.384 123.406ZM361.081 120.634C360.866 119.818 361.427 119 362.334 118.807C364.076 118.435 365.819 117.994 367.515 117.494C368.399 117.231 369.355 117.667 369.645 118.464C369.936 119.261 369.452 120.119 368.567 120.38C366.781 120.906 364.946 121.371 363.113 121.762C363.018 121.782 362.923 121.794 362.829 121.8C362.023 121.846 361.274 121.365 361.081 120.634ZM339.197 122.958C337.333 122.751 335.453 122.469 333.609 122.121C332.697 121.948 332.113 121.143 332.305 120.322C332.497 119.501 333.392 118.977 334.304 119.148C336.055 119.48 337.84 119.747 339.61 119.943C340.536 120.046 341.194 120.804 341.079 121.637C340.978 122.373 340.307 122.92 339.513 122.966C339.409 122.972 339.304 122.969 339.197 122.958ZM374.838 116.57C374.429 115.817 374.776 114.907 375.614 114.539C377.22 113.834 378.812 113.059 380.345 112.235C381.146 111.804 382.182 112.039 382.66 112.759C383.139 113.479 382.878 114.411 382.077 114.841C380.463 115.709 378.787 116.526 377.095 117.269C376.891 117.358 376.676 117.408 376.462 117.42C375.8 117.458 375.147 117.14 374.838 116.57ZM324.765 119.866C322.998 119.296 321.233 118.65 319.52 117.945C318.672 117.597 318.299 116.696 318.686 115.933C319.074 115.17 320.076 114.834 320.924 115.183C322.551 115.852 324.227 116.466 325.905 117.008C326.783 117.291 327.239 118.161 326.924 118.95C326.689 119.538 326.093 119.916 325.441 119.953C325.218 119.966 324.988 119.939 324.765 119.866ZM311.435 114.003C309.846 113.097 308.281 112.12 306.783 111.099C306.039 110.593 305.893 109.64 306.456 108.972C307.02 108.302 308.079 108.171 308.822 108.678C310.245 109.648 311.733 110.577 313.243 111.438C314.03 111.887 314.264 112.825 313.765 113.534C313.464 113.96 312.965 114.206 312.445 114.236C312.101 114.256 311.748 114.181 311.435 114.003ZM299.843 105.666C298.51 104.469 297.218 103.209 296.004 101.92C295.401 101.28 295.489 100.322 296.201 99.7795C296.913 99.2366 297.978 99.3168 298.58 99.9563C299.734 101.181 300.961 102.379 302.228 103.516C302.888 104.108 302.889 105.07 302.231 105.663C301.928 105.936 301.539 106.084 301.143 106.106C300.677 106.133 300.2 105.986 299.843 105.666ZM290.549 95.2527C289.539 93.8231 288.585 92.3381 287.715 90.8388C287.283 90.0955 287.603 89.178 288.43 88.7896C289.255 88.4018 290.276 88.6895 290.707 89.4328C291.534 90.8561 292.439 92.2661 293.399 93.6242C293.899 94.332 293.666 95.2703 292.879 95.7199C292.631 95.8619 292.357 95.9381 292.082 95.9538C291.488 95.9878 290.891 95.7371 290.549 95.2527ZM284.022 83.2507C283.389 81.66 282.823 80.0238 282.34 78.3873C282.101 77.5766 282.638 76.7446 283.539 76.5297C284.438 76.3155 285.365 76.797 285.604 77.6077C286.062 79.1627 286.6 80.7165 287.201 82.2276C287.515 83.0169 287.058 83.8863 286.181 84.1689C286.028 84.2181 285.872 84.2467 285.718 84.2554C284.986 84.2971 284.282 83.9028 284.022 83.2507ZM280.588 70.2662C280.417 69.0307 280.285 67.7752 280.198 66.5349C280.166 66.0856 280.14 65.6378 280.119 65.1901C280.08 64.3525 280.792 63.6288 281.736 63.61C282.667 63.5747 283.454 64.2258 283.493 65.0641C283.513 65.4892 283.537 65.9156 283.567 66.3424C283.651 67.5218 283.775 68.7147 283.939 69.8894C284.054 70.7214 283.398 71.4804 282.473 71.5844C282.438 71.5881 282.403 71.5913 282.369 71.5933C281.485 71.6439 280.699 71.067 280.588 70.2662Z" fill="#91B3FA"/>
<path d="M388.72 110.424C389.055 110.405 389.386 110.296 389.668 110.093C390.381 109.579 391.095 109.041 391.791 108.495C392.494 107.944 392.567 106.984 391.954 106.352C391.341 105.72 390.275 105.654 389.572 106.206C388.911 106.725 388.232 107.235 387.555 107.724C386.828 108.248 386.711 109.204 387.294 109.858C387.652 110.259 388.19 110.454 388.72 110.424Z" fill="#91B3FA"/>
</g>
<path d="M391.909 84.5483C392.105 84.3018 392.105 83.9711 391.91 83.7242L386.349 76.6819C388.058 72.9522 389.118 68.9505 389.421 64.8078L397.86 60.6963C398.156 60.5521 398.318 60.2547 398.263 59.9561L396.378 49.7341C396.323 49.4354 396.063 49.2009 395.732 49.1505L386.269 47.7094C384.495 43.8766 382.055 40.3967 379.099 37.3631L381.836 29.083C381.932 28.7927 381.813 28.4798 381.539 28.3036L372.17 22.2741C371.897 22.0979 371.529 22.0973 371.254 22.2727L363.425 27.2756C359.279 25.7381 354.83 24.7842 350.224 24.5115L345.653 16.9206C345.493 16.6543 345.163 16.5088 344.831 16.5585L333.466 18.2536C333.134 18.3033 332.873 18.5368 332.817 18.8352L331.215 27.3471C326.954 28.9425 323.085 31.1369 319.713 33.796L310.507 31.334C310.184 31.2478 309.836 31.355 309.641 31.6013L302.937 40.0281C302.742 40.2743 302.741 40.6053 302.936 40.8521L308.498 47.8945C306.788 51.6241 305.728 55.6258 305.425 59.7686L296.986 63.8801C296.69 64.0241 296.528 64.3215 296.583 64.6201L298.468 74.8424C298.523 75.1412 298.783 75.3755 299.114 75.4261L308.577 76.8673C310.351 80.7001 312.791 84.1798 315.747 87.2136L313.01 95.4937C312.914 95.7838 313.033 96.097 313.307 96.2733L322.676 102.303C322.949 102.479 323.317 102.48 323.592 102.304L331.421 97.3011C335.567 98.8386 340.016 99.7923 344.622 100.065L349.193 107.656C349.353 107.922 349.683 108.068 350.015 108.018L361.38 106.323C361.712 106.273 361.973 106.04 362.029 105.741L363.631 97.2296C367.892 95.6341 371.76 93.4396 375.133 90.7806L384.339 93.2425C384.662 93.3289 385.009 93.2214 385.205 92.9752L391.909 84.5483Z" fill="#91B3FA"/>
<path d="M346.464 72.6677C340.102 72.1917 335.355 67.1489 335.884 61.4251C336.14 58.6526 337.582 56.1356 339.942 54.3384C342.302 52.5412 345.3 51.6776 348.383 51.9088C354.746 52.3848 359.492 57.4276 358.963 63.1514C358.482 68.3583 353.798 72.3615 348.165 72.6831C347.606 72.7149 347.038 72.7104 346.464 72.6677ZM341.688 56.193C339.877 57.5713 338.773 59.5008 338.576 61.6268C338.171 66.0146 341.81 69.8819 346.688 70.2466C351.568 70.6129 355.866 67.3378 356.271 62.9496C356.676 58.5619 353.037 54.6945 348.159 54.3299C347.717 54.2969 347.277 54.2935 346.842 54.3183C344.953 54.426 343.159 55.0731 341.688 56.193Z" fill="#BDD0FB"/>
<path d="M348.987 87.7096C349.955 87.6544 350.925 87.5551 351.894 87.4106C352.199 87.3652 352.504 87.3151 352.807 87.2609C354.303 86.993 355.773 86.6185 357.195 86.1433C357.214 86.1368 357.233 86.1303 357.253 86.124C357.308 86.1055 357.362 86.0869 357.417 86.0677C357.524 86.0313 357.63 85.9937 357.736 85.9562C358.016 85.857 358.18 85.6093 358.162 85.3536C358.158 85.2914 358.143 85.2286 358.116 85.1679C357.979 84.8558 357.586 84.7042 357.24 84.8268C355.455 85.4619 353.582 85.9278 351.674 86.2121C342.193 87.6277 333.027 84.4135 327.037 78.4147C323.704 75.0784 321.355 70.88 320.481 66.1369C320.327 65.3052 320.221 64.4726 320.163 63.6425C319.77 58.0564 321.51 52.5641 325.18 47.9509C329.395 42.6514 335.653 39.1456 342.799 38.0797C357.559 35.8794 371.545 44.8852 373.992 58.1548C374.143 58.9731 374.247 59.7951 374.305 60.6173C374.555 64.1806 373.937 67.7538 372.478 71.0782C372.441 71.1642 372.426 71.253 372.433 71.3394C372.449 71.5667 372.607 71.777 372.859 71.866C373.206 71.9881 373.598 71.8368 373.735 71.5235C375.265 68.0333 375.916 64.2818 375.652 60.541C375.592 59.6778 375.482 58.8151 375.324 57.9563C372.756 44.0243 358.061 34.5714 342.578 36.8807C335.075 37.9998 328.507 41.6801 324.081 47.2437C320.228 52.0868 318.402 57.8527 318.815 63.717C318.876 64.5885 318.987 65.4624 319.148 66.3353C320.392 73.0842 324.484 78.9931 330.669 82.9736C336.055 86.4396 342.467 88.0818 348.987 87.7096Z" fill="#BDD0FB"/>
<g opacity="0.3">
<path d="M473.62 103.418C474.071 103.392 474.467 103.104 474.571 102.688C474.766 101.911 474.938 101.119 475.081 100.332C475.174 99.8213 474.789 99.3394 474.22 99.2552C473.651 99.1693 473.116 99.5183 473.023 100.029C472.886 100.779 472.723 101.534 472.537 102.275C472.41 102.78 472.763 103.282 473.324 103.397C473.424 103.417 473.523 103.423 473.62 103.418Z" fill="#91B3FA"/>
<path d="M474.555 96.2655C473.979 96.2451 473.531 95.81 473.553 95.2919C473.608 93.9854 473.59 92.6613 473.498 91.3568C473.478 91.0817 473.455 90.8057 473.429 90.5292C473.381 90.0134 473.807 89.5596 474.381 89.5158C474.925 89.4939 475.458 89.8554 475.508 90.372C475.535 90.6614 475.559 90.9501 475.579 91.2381C475.676 92.6056 475.695 93.9939 475.636 95.3639C475.616 95.8487 475.189 96.2338 474.662 96.2639C474.627 96.2659 474.591 96.2661 474.555 96.2655ZM472.663 85.8161C472.302 84.2646 471.831 82.7192 471.262 81.2235C471.076 80.733 471.367 80.2007 471.912 80.0328C472.454 79.8668 473.05 80.1266 473.236 80.617C473.831 82.1846 474.325 83.8048 474.704 85.4316C474.822 85.9387 474.46 86.4357 473.896 86.5423C473.847 86.5515 473.797 86.5571 473.748 86.5599C473.238 86.589 472.77 86.2781 472.663 85.8161ZM469.241 76.8207C468.469 75.3981 467.59 74.0045 466.628 72.6772C466.314 72.2437 466.45 71.6623 466.932 71.3796C467.416 71.0959 468.06 71.2179 468.375 71.6524C469.384 73.0439 470.306 74.5066 471.115 75.9978C471.368 76.4633 471.153 77.0253 470.635 77.2522C470.509 77.3071 470.377 77.3377 470.245 77.3452C469.835 77.3687 469.432 77.1723 469.241 76.8207ZM463.466 68.8563C462.329 67.6455 461.097 66.487 459.807 65.4152C459.383 65.063 459.357 64.4698 459.748 64.0896C460.138 63.7103 460.798 63.6855 461.222 64.0367C462.575 65.1617 463.866 66.3756 465.059 67.6457C465.431 68.0411 465.375 68.6334 464.936 68.968C464.758 69.102 464.545 69.1747 464.33 69.187C464.011 69.2051 463.688 69.0923 463.466 68.8563ZM455.705 62.4013C454.275 61.4761 452.768 60.6222 451.226 59.8623C450.721 59.6139 450.536 59.0435 450.813 58.5891C451.089 58.1346 451.723 57.9672 452.228 58.2174C453.845 59.0135 455.424 59.909 456.923 60.8781C457.39 61.1809 457.497 61.7669 457.161 62.187C456.971 62.4245 456.68 62.5586 456.38 62.5759C456.147 62.589 455.909 62.5328 455.705 62.4013ZM446.437 57.8366C444.801 57.2526 443.11 56.7553 441.41 56.3588C440.852 56.2291 440.517 55.7168 440.662 55.2157C440.807 54.7146 441.374 54.4142 441.933 54.5429C443.717 54.9587 445.491 55.4807 447.207 56.093C447.742 56.2846 448.004 56.8295 447.791 57.3106C447.637 57.6589 447.277 57.8787 446.887 57.9011C446.738 57.9094 446.585 57.8896 446.437 57.8366ZM436.214 55.4503C434.474 55.2459 432.697 55.137 430.932 55.1278C430.356 55.1239 429.892 54.7016 429.896 54.1838C429.899 53.666 430.368 53.2565 430.945 53.2511C432.796 53.262 434.659 53.3759 436.483 53.5903C437.054 53.6577 437.457 54.1284 437.382 54.6421C437.317 55.0937 436.903 55.4284 436.416 55.4563C436.349 55.46 436.282 55.4585 436.214 55.4503ZM419.172 55.5459C419.036 55.0426 419.379 54.5356 419.938 54.4127C421.487 54.0728 423.083 53.8036 424.678 53.6125C424.92 53.5823 425.162 53.5556 425.404 53.5298C425.971 53.4552 426.494 53.8383 426.559 54.3541C426.626 54.8688 426.216 55.3337 425.643 55.3938C425.416 55.417 425.189 55.4427 424.958 55.4716C423.432 55.654 421.909 55.9109 420.432 56.2348C420.371 56.2483 420.31 56.2564 420.25 56.2598C419.755 56.2881 419.294 55.9942 419.172 55.5459Z" fill="#91B3FA"/>
</g>
<g opacity="0.3">
<path d="M432.856 134.227C431.041 134.31 429.205 134.292 427.398 134.178C426.824 134.141 426.391 133.693 426.431 133.176C426.472 132.659 426.974 132.275 427.545 132.306C429.268 132.416 431.02 132.432 432.752 132.353C433.327 132.327 433.816 132.726 433.845 133.243C433.874 133.756 433.438 134.194 432.871 134.226C432.866 134.227 432.861 134.227 432.856 134.227ZM437.08 132.919C436.983 132.409 437.364 131.924 437.931 131.836C439.638 131.572 441.345 131.212 443.004 130.766C443.552 130.62 444.136 130.899 444.301 131.397C444.466 131.893 444.152 132.415 443.601 132.564C441.863 133.031 440.074 133.409 438.285 133.685C438.247 133.691 438.21 133.695 438.172 133.697C437.648 133.727 437.172 133.397 437.08 132.919ZM421.983 133.532C420.198 133.217 418.42 132.802 416.698 132.297C416.15 132.136 415.851 131.607 416.029 131.115C416.207 130.622 416.794 130.354 417.343 130.513C418.986 130.994 420.682 131.391 422.384 131.692C422.95 131.791 423.318 132.285 423.207 132.792C423.113 133.219 422.711 133.521 422.25 133.548C422.163 133.553 422.073 133.548 421.983 133.532ZM447.356 130.387C447.125 129.913 447.365 129.36 447.892 129.151C449.479 128.526 451.038 127.806 452.526 127.012C453.021 126.748 453.661 126.895 453.955 127.34C454.249 127.785 454.086 128.361 453.59 128.625C452.029 129.459 450.394 130.214 448.73 130.869C448.615 130.914 448.496 130.94 448.377 130.946C447.953 130.971 447.537 130.758 447.356 130.387ZM411.622 130.494C409.978 129.804 408.364 129.016 406.823 128.153C406.335 127.879 406.186 127.3 406.49 126.86C406.795 126.421 407.438 126.286 407.927 126.56C409.396 127.385 410.936 128.136 412.504 128.794C413.026 129.013 413.252 129.571 413.008 130.041C412.841 130.362 412.497 130.559 412.128 130.58C411.96 130.59 411.786 130.563 411.622 130.494ZM402.372 125.309C400.957 124.283 399.599 123.17 398.335 122.003C397.933 121.632 397.942 121.038 398.354 120.677C398.766 120.316 399.427 120.323 399.829 120.695C401.035 121.808 402.331 122.869 403.682 123.849C404.13 124.174 404.2 124.764 403.839 125.168C403.648 125.38 403.374 125.499 403.092 125.515C402.841 125.529 402.584 125.462 402.372 125.309ZM394.769 118.281C393.667 116.979 392.644 115.605 391.73 114.197C391.439 113.75 391.607 113.176 392.104 112.914C392.601 112.653 393.24 112.804 393.53 113.25C394.402 114.593 395.377 115.903 396.428 117.143C396.777 117.556 396.689 118.144 396.23 118.458C396.06 118.575 395.864 118.637 395.666 118.648C395.329 118.667 394.989 118.54 394.769 118.281Z" fill="#91B3FA"/>
<path d="M457.579 126.033C457.78 126.022 457.979 125.958 458.15 125.839C458.856 125.348 459.549 124.836 460.21 124.317C460.644 123.976 460.689 123.384 460.311 122.993C459.932 122.605 459.274 122.563 458.839 122.903C458.209 123.398 457.547 123.886 456.874 124.355C456.418 124.672 456.335 125.261 456.687 125.671C456.907 125.926 457.245 126.052 457.579 126.033Z" fill="#91B3FA"/>
</g>
<path d="M460.346 108.351C460.477 108.186 460.477 107.965 460.347 107.8L456.625 103.087C457.769 100.592 458.478 97.914 458.681 95.1419L464.328 92.3907C464.527 92.2941 464.635 92.0953 464.598 91.8953L463.337 85.0552C463.3 84.8553 463.126 84.6983 462.904 84.6646L456.572 83.7003C455.385 81.1356 453.753 78.807 451.775 76.777L453.606 71.2362C453.67 71.0421 453.59 70.8326 453.407 70.7146L447.138 66.6799C446.955 66.5621 446.709 66.5616 446.525 66.679L441.286 70.0267C438.512 68.9979 435.535 68.3596 432.453 68.1772L429.394 63.0976C429.287 62.9195 429.066 62.8221 428.843 62.8553L421.239 63.9896C421.017 64.0228 420.842 64.1792 420.805 64.3789L419.733 70.0747C416.881 71.1422 414.292 72.6106 412.036 74.3901L405.876 72.7426C405.66 72.6849 405.427 72.7566 405.296 72.9215L400.811 78.5605C400.68 78.7252 400.679 78.9466 400.81 79.1117L404.532 83.8243C403.388 86.32 402.678 88.9978 402.475 91.7699L396.828 94.5211C396.63 94.6175 396.522 94.8163 396.559 95.0164L397.82 101.857C397.857 102.056 398.031 102.213 398.253 102.247L404.585 103.211C405.772 105.776 407.404 108.105 409.383 110.135L407.551 115.676C407.487 115.87 407.567 116.079 407.75 116.197L414.019 120.232C414.202 120.35 414.448 120.35 414.632 120.233L419.871 116.885C422.646 117.914 425.623 118.552 428.705 118.734L431.763 123.814C431.871 123.992 432.092 124.089 432.314 124.056L439.918 122.922C440.141 122.889 440.315 122.732 440.353 122.533L441.425 116.837C444.276 115.769 446.865 114.301 449.121 112.522L455.281 114.169C455.497 114.227 455.73 114.155 455.861 113.99L460.346 108.351Z" fill="#91B3FA"/>
<path d="M429.925 100.526C427.825 100.37 425.919 99.4865 424.558 98.0398C423.197 96.5939 422.543 94.7572 422.718 92.8683C423.078 88.9701 426.891 86.0679 431.232 86.3855C435.566 86.7106 438.799 90.1459 438.438 94.0432C438.264 95.9319 437.282 97.6463 435.675 98.8707C434.367 99.8658 432.773 100.441 431.094 100.536C430.709 100.559 430.318 100.555 429.925 100.526ZM424.796 93.0232C424.668 94.4127 425.148 95.7637 426.15 96.8282C427.151 97.8917 428.553 98.5412 430.097 98.6569C431.642 98.7706 433.144 98.3398 434.327 97.4388C435.51 96.539 436.231 95.277 436.36 93.8883C436.625 91.0206 434.247 88.4938 431.059 88.2547C430.771 88.2336 430.487 88.2314 430.207 88.2473C427.385 88.4085 425.037 90.4149 424.796 93.0232Z" fill="#BDD0FB"/>
<path d="M431.683 110.995C432.341 110.957 433.003 110.889 433.667 110.791C434.986 110.594 436.285 110.277 437.529 109.846C437.585 109.826 437.641 109.807 437.697 109.787C438.128 109.634 438.382 109.251 438.354 108.856C438.348 108.76 438.324 108.664 438.283 108.57C438.071 108.088 437.465 107.855 436.93 108.043C435.772 108.455 434.56 108.756 433.327 108.94H433.327C433.259 108.95 433.191 108.959 433.124 108.969C430.201 109.379 427.276 109.118 424.563 108.245C423.09 107.771 421.68 107.116 420.367 106.287C420.356 106.28 420.345 106.273 420.335 106.266C420.302 106.245 420.27 106.225 420.237 106.204C416.424 103.749 413.9 100.105 413.133 95.9438C413.034 95.4052 412.965 94.8668 412.928 94.3292C412.673 90.713 413.8 87.1574 416.175 84.1701C418.904 80.7396 422.955 78.4709 427.581 77.7808C432.205 77.0927 436.856 78.0626 440.671 80.5166C444.484 82.9714 447.008 86.615 447.775 90.7767C447.873 91.306 447.94 91.8383 447.978 92.3703C448.14 94.6776 447.739 96.9904 446.795 99.1424C446.737 99.275 446.715 99.4121 446.725 99.5457C446.75 99.8968 446.994 100.221 447.382 100.359C447.919 100.548 448.524 100.313 448.735 99.8303C449.791 97.4222 450.24 94.8342 450.059 92.2537C450.017 91.6577 449.942 91.0626 449.833 90.4705C448.974 85.8141 446.151 81.7377 441.884 78.9913C437.617 76.2456 432.419 75.1546 427.24 75.9303C422.064 76.7022 417.532 79.2407 414.479 83.0798C411.821 86.421 410.561 90.3989 410.846 94.4449C410.888 95.0455 410.964 95.6488 411.075 96.2508C412.738 105.265 421.755 111.562 431.683 110.995Z" fill="#BDD0FB"/>
<defs>
<linearGradient id="paint0_linear_74_1146" x1="532.592" y1="551.066" x2="165.602" y2="44.3585" gradientUnits="userSpaceOnUse">
<stop stop-color="#DAE3FE"/>
<stop offset="1" stop-color="#E9EFFD"/>
</linearGradient>
<linearGradient id="paint1_linear_74_1146" x1="101.32" y1="216.098" x2="137.412" y2="216.098" gradientUnits="userSpaceOnUse">
<stop stop-color="#DAE3FE"/>
<stop offset="1" stop-color="#E9EFFD"/>
</linearGradient>
<linearGradient id="paint2_linear_74_1146" x1="61.1826" y1="216.094" x2="97.1998" y2="216.094" gradientUnits="userSpaceOnUse">
<stop stop-color="#DAE3FE"/>
<stop offset="1" stop-color="#E9EFFD"/>
</linearGradient>
<linearGradient id="paint3_linear_74_1146" x1="21.0862" y1="216.091" x2="57.0285" y2="216.091" gradientUnits="userSpaceOnUse">
<stop stop-color="#DAE3FE"/>
<stop offset="1" stop-color="#E9EFFD"/>
</linearGradient>
<linearGradient id="paint4_linear_74_1146" x1="100.872" y1="239.718" x2="136.901" y2="239.718" gradientUnits="userSpaceOnUse">
<stop stop-color="#DAE3FE"/>
<stop offset="1" stop-color="#E9EFFD"/>
</linearGradient>
<linearGradient id="paint5_linear_74_1146" x1="60.8052" y1="239.702" x2="96.7593" y2="239.702" gradientUnits="userSpaceOnUse">
<stop stop-color="#DAE3FE"/>
<stop offset="1" stop-color="#E9EFFD"/>
</linearGradient>
<linearGradient id="paint6_linear_74_1146" x1="20.7786" y1="239.687" x2="56.6579" y2="239.687" gradientUnits="userSpaceOnUse">
<stop stop-color="#DAE3FE"/>
<stop offset="1" stop-color="#E9EFFD"/>
</linearGradient>
<linearGradient id="paint7_linear_74_1146" x1="100.426" y1="263.132" x2="136.391" y2="263.132" gradientUnits="userSpaceOnUse">
<stop stop-color="#DAE3FE"/>
<stop offset="1" stop-color="#E9EFFD"/>
</linearGradient>
<linearGradient id="paint8_linear_74_1146" x1="60.429" y1="263.106" x2="96.32" y2="263.106" gradientUnits="userSpaceOnUse">
<stop stop-color="#DAE3FE"/>
<stop offset="1" stop-color="#E9EFFD"/>
</linearGradient>
<linearGradient id="paint9_linear_74_1146" x1="20.4716" y1="263.079" x2="56.2882" y2="263.079" gradientUnits="userSpaceOnUse">
<stop stop-color="#DAE3FE"/>
<stop offset="1" stop-color="#E9EFFD"/>
</linearGradient>
<linearGradient id="paint10_linear_74_1146" x1="99.9814" y1="286.466" x2="135.884" y2="286.466" gradientUnits="userSpaceOnUse">
<stop stop-color="#DAE3FE"/>
<stop offset="1" stop-color="#E9EFFD"/>
</linearGradient>
<linearGradient id="paint11_linear_74_1146" x1="60.054" y1="286.428" x2="95.8824" y2="286.428" gradientUnits="userSpaceOnUse">
<stop stop-color="#DAE3FE"/>
<stop offset="1" stop-color="#E9EFFD"/>
</linearGradient>
<linearGradient id="paint12_linear_74_1146" x1="20.166" y1="286.389" x2="55.9202" y2="286.389" gradientUnits="userSpaceOnUse">
<stop stop-color="#DAE3FE"/>
<stop offset="1" stop-color="#E9EFFD"/>
</linearGradient>
<linearGradient id="paint13_linear_74_1146" x1="99.5391" y1="309.719" x2="135.379" y2="309.719" gradientUnits="userSpaceOnUse">
<stop stop-color="#DAE3FE"/>
<stop offset="1" stop-color="#E9EFFD"/>
</linearGradient>
<linearGradient id="paint14_linear_74_1146" x1="59.6804" y1="309.669" x2="95.4463" y2="309.669" gradientUnits="userSpaceOnUse">
<stop stop-color="#DAE3FE"/>
<stop offset="1" stop-color="#E9EFFD"/>
</linearGradient>
<linearGradient id="paint15_linear_74_1146" x1="19.8613" y1="309.619" x2="55.5533" y2="309.619" gradientUnits="userSpaceOnUse">
<stop stop-color="#DAE3FE"/>
<stop offset="1" stop-color="#E9EFFD"/>
</linearGradient>
<linearGradient id="paint16_linear_74_1146" x1="99.0976" y1="332.892" x2="134.875" y2="332.892" gradientUnits="userSpaceOnUse">
<stop stop-color="#DAE3FE"/>
<stop offset="1" stop-color="#E9EFFD"/>
</linearGradient>
<linearGradient id="paint17_linear_74_1146" x1="59.3079" y1="332.83" x2="95.0116" y2="332.83" gradientUnits="userSpaceOnUse">
<stop stop-color="#DAE3FE"/>
<stop offset="1" stop-color="#E9EFFD"/>
</linearGradient>
<linearGradient id="paint18_linear_74_1146" x1="19.5578" y1="332.769" x2="55.1878" y2="332.769" gradientUnits="userSpaceOnUse">
<stop stop-color="#DAE3FE"/>
<stop offset="1" stop-color="#E9EFFD"/>
</linearGradient>
<linearGradient id="paint19_linear_74_1146" x1="98.6575" y1="355.985" x2="134.373" y2="355.985" gradientUnits="userSpaceOnUse">
<stop stop-color="#DAE3FE"/>
<stop offset="1" stop-color="#E9EFFD"/>
</linearGradient>
<linearGradient id="paint20_linear_74_1146" x1="58.9366" y1="355.912" x2="94.5781" y2="355.912" gradientUnits="userSpaceOnUse">
<stop stop-color="#DAE3FE"/>
<stop offset="1" stop-color="#E9EFFD"/>
</linearGradient>
<linearGradient id="paint21_linear_74_1146" x1="19.2551" y1="355.839" x2="54.8234" y2="355.839" gradientUnits="userSpaceOnUse">
<stop stop-color="#DAE3FE"/>
<stop offset="1" stop-color="#E9EFFD"/>
</linearGradient>
<linearGradient id="paint22_linear_74_1146" x1="98.2192" y1="378.998" x2="133.872" y2="378.998" gradientUnits="userSpaceOnUse">
<stop stop-color="#DAE3FE"/>
<stop offset="1" stop-color="#E9EFFD"/>
</linearGradient>
<linearGradient id="paint23_linear_74_1146" x1="58.5668" y1="378.914" x2="94.1466" y2="378.914" gradientUnits="userSpaceOnUse">
<stop stop-color="#DAE3FE"/>
<stop offset="1" stop-color="#E9EFFD"/>
</linearGradient>
<linearGradient id="paint24_linear_74_1146" x1="18.9538" y1="378.83" x2="54.4604" y2="378.83" gradientUnits="userSpaceOnUse">
<stop stop-color="#DAE3FE"/>
<stop offset="1" stop-color="#E9EFFD"/>
</linearGradient>
<linearGradient id="paint25_linear_74_1146" x1="97.7825" y1="401.933" x2="133.374" y2="401.933" gradientUnits="userSpaceOnUse">
<stop stop-color="#DAE3FE"/>
<stop offset="1" stop-color="#E9EFFD"/>
</linearGradient>
<linearGradient id="paint26_linear_74_1146" x1="58.1983" y1="401.837" x2="93.7165" y2="401.837" gradientUnits="userSpaceOnUse">
<stop stop-color="#DAE3FE"/>
<stop offset="1" stop-color="#E9EFFD"/>
</linearGradient>
<linearGradient id="paint27_linear_74_1146" x1="18.6533" y1="401.742" x2="54.0985" y2="401.742" gradientUnits="userSpaceOnUse">
<stop stop-color="#DAE3FE"/>
<stop offset="1" stop-color="#E9EFFD"/>
</linearGradient>
<linearGradient id="paint28_linear_74_1146" x1="389.815" y1="-192.341" x2="305.541" y2="354.184" gradientUnits="userSpaceOnUse">
<stop stop-color="#4042E2"/>
<stop offset="1" stop-color="#4F52FF"/>
</linearGradient>
<linearGradient id="paint29_linear_74_1146" x1="213.313" y1="256.827" x2="396.49" y2="256.827" gradientUnits="userSpaceOnUse">
<stop stop-color="#4042E2"/>
<stop offset="1" stop-color="#4F52FF"/>
</linearGradient>
<linearGradient id="paint30_linear_74_1146" x1="319.166" y1="75.1818" x2="365.659" y2="-44.0979" gradientUnits="userSpaceOnUse">
<stop stop-color="#09005D"/>
<stop offset="1" stop-color="#1A0F91"/>
</linearGradient>
<linearGradient id="paint31_linear_74_1146" x1="324.233" y1="150.121" x2="222.363" y2="935.081" gradientUnits="userSpaceOnUse">
<stop stop-color="#FEBBBA"/>
<stop offset="1" stop-color="#FF928E"/>
</linearGradient>
<linearGradient id="paint32_linear_74_1146" x1="320.944" y1="149.694" x2="219.074" y2="934.655" gradientUnits="userSpaceOnUse">
<stop stop-color="#FEBBBA"/>
<stop offset="1" stop-color="#FF928E"/>
</linearGradient>
<linearGradient id="paint33_linear_74_1146" x1="328.104" y1="239.046" x2="482.823" y2="-102.946" gradientUnits="userSpaceOnUse">
<stop stop-color="#FE7062"/>
<stop offset="1" stop-color="#FF928E"/>
</linearGradient>
<linearGradient id="paint34_linear_74_1146" x1="80.5173" y1="419.316" x2="100.855" y2="419.316" gradientUnits="userSpaceOnUse">
<stop stop-color="#09005D"/>
<stop offset="1" stop-color="#1A0F91"/>
</linearGradient>
<linearGradient id="paint35_linear_74_1146" x1="86.1734" y1="398.49" x2="83.0225" y2="429.062" gradientUnits="userSpaceOnUse">
<stop stop-color="#FEBBBA"/>
<stop offset="1" stop-color="#FF928E"/>
</linearGradient>
<linearGradient id="paint36_linear_74_1146" x1="111.486" y1="419.781" x2="140.762" y2="419.781" gradientUnits="userSpaceOnUse">
<stop stop-color="#09005D"/>
<stop offset="1" stop-color="#1A0F91"/>
</linearGradient>
<linearGradient id="paint37_linear_74_1146" x1="117.288" y1="401.711" x2="115.876" y2="432.382" gradientUnits="userSpaceOnUse">
<stop stop-color="#FEBBBA"/>
<stop offset="1" stop-color="#FF928E"/>
</linearGradient>
<linearGradient id="paint38_linear_74_1146" x1="111.923" y1="427.26" x2="79.1256" y2="253.395" gradientUnits="userSpaceOnUse">
<stop stop-color="#09005D"/>
<stop offset="1" stop-color="#1A0F91"/>
</linearGradient>
<linearGradient id="paint39_linear_74_1146" x1="152.99" y1="191.608" x2="74.3313" y2="288.084" gradientUnits="userSpaceOnUse">
<stop stop-color="#4042E2"/>
<stop offset="1" stop-color="#4F52FF"/>
</linearGradient>
<linearGradient id="paint40_linear_74_1146" x1="135.717" y1="196.504" x2="26.1417" y2="420.097" gradientUnits="userSpaceOnUse">
<stop stop-color="#4042E2"/>
<stop offset="1" stop-color="#4F52FF"/>
</linearGradient>
<linearGradient id="paint41_linear_74_1146" x1="101.671" y1="220.744" x2="109.14" y2="198.07" gradientUnits="userSpaceOnUse">
<stop stop-color="#FEBBBA"/>
<stop offset="1" stop-color="#FF928E"/>
</linearGradient>
<linearGradient id="paint42_linear_74_1146" x1="109.479" y1="149.31" x2="106.076" y2="178.196" gradientUnits="userSpaceOnUse">
<stop stop-color="#4042E2"/>
<stop offset="1" stop-color="#4F52FF"/>
</linearGradient>
<linearGradient id="paint43_linear_74_1146" x1="116.811" y1="150.174" x2="113.408" y2="179.059" gradientUnits="userSpaceOnUse">
<stop stop-color="#4042E2"/>
<stop offset="1" stop-color="#4F52FF"/>
</linearGradient>
<linearGradient id="paint44_linear_74_1146" x1="123.847" y1="187.5" x2="74.5996" y2="231.107" gradientUnits="userSpaceOnUse">
<stop stop-color="#FEBBBA"/>
<stop offset="1" stop-color="#FF928E"/>
</linearGradient>
<linearGradient id="paint45_linear_74_1146" x1="103.094" y1="174.83" x2="124.573" y2="205.574" gradientUnits="userSpaceOnUse">
<stop stop-color="#09005D"/>
<stop offset="1" stop-color="#1A0F91"/>
</linearGradient>
<linearGradient id="paint46_linear_74_1146" x1="118.436" y1="185.39" x2="94.1006" y2="206.091" gradientUnits="userSpaceOnUse">
<stop stop-color="#FEBBBA"/>
<stop offset="1" stop-color="#FF928E"/>
</linearGradient>
<linearGradient id="paint47_linear_74_1146" x1="181.052" y1="197.42" x2="130.168" y2="246.285" gradientUnits="userSpaceOnUse">
<stop stop-color="#FEBBBA"/>
<stop offset="1" stop-color="#FF928E"/>
</linearGradient>
<linearGradient id="paint48_linear_74_1146" x1="182.221" y1="201.477" x2="132.689" y2="249.044" gradientUnits="userSpaceOnUse">
<stop stop-color="#FEBBBA"/>
<stop offset="1" stop-color="#FF928E"/>
</linearGradient>
<linearGradient id="paint49_linear_74_1146" x1="183.126" y1="199.579" x2="132.242" y2="248.445" gradientUnits="userSpaceOnUse">
<stop stop-color="#FEBBBA"/>
<stop offset="1" stop-color="#FF928E"/>
</linearGradient>
<linearGradient id="paint50_linear_74_1146" x1="112.42" y1="110.588" x2="235.609" y2="291.368" gradientUnits="userSpaceOnUse">
<stop stop-color="#E1473D"/>
<stop offset="1" stop-color="#E9605A"/>
</linearGradient>
<linearGradient id="paint51_linear_74_1146" x1="263.931" y1="140.354" x2="242.475" y2="257.344" gradientUnits="userSpaceOnUse">
<stop stop-color="#FE7062"/>
<stop offset="1" stop-color="#FF928E"/>
</linearGradient>
<linearGradient id="paint52_linear_74_1146" x1="127.844" y1="195.281" x2="349.69" y2="213.72" gradientUnits="userSpaceOnUse">
<stop stop-color="#FF9085"/>
<stop offset="1" stop-color="#FB6FBB"/>
</linearGradient>
<linearGradient id="paint53_linear_74_1146" x1="228.865" y1="187.696" x2="273.48" y2="61.5868" gradientUnits="userSpaceOnUse">
<stop stop-color="#FE7062"/>
<stop offset="1" stop-color="#FF928E"/>
</linearGradient>
<linearGradient id="paint54_linear_74_1146" x1="258.463" y1="56.9582" x2="250.753" y2="73.5639" gradientUnits="userSpaceOnUse">
<stop stop-color="#FE7062"/>
<stop offset="1" stop-color="#FF928E"/>
</linearGradient>
<linearGradient id="paint55_linear_74_1146" x1="147.638" y1="235.288" x2="125.925" y2="355.707" gradientUnits="userSpaceOnUse">
<stop stop-color="#FEBBBA"/>
<stop offset="1" stop-color="#FF928E"/>
</linearGradient>
</defs>
</svg>
